<?xml version="1.0" encoding="utf-8"?>
<!-- Generator: Adobe Illustrator 22.1.0, SVG Export Plug-In . SVG Version: 6.00 Build 0)  -->
<svg version="1.1" id="Layer_1" xmlns="http://www.w3.org/2000/svg" xmlns:xlink="http://www.w3.org/1999/xlink" x="0px" y="0px"
	 viewBox="0 0 500 500" style="enable-background:new 0 0 500 500;" xml:space="preserve">
<style type="text/css">
	.st0{fill:#FFFFFF;}
</style>
<path d="M458.2,258.1c-2.5,113.4-96.5,206.1-212.7,203.9C132.1,459.9,39.2,365.9,41,249.3c1.8-114.1,96.9-206,212.3-204.3
	C366.9,46.6,460.6,140.9,458.2,258.1z M182.8,104.7c-5.6,1.9-10.1,3.5-14.6,4.9c-3.1,0.9-3.9,3-4.2,5.9c-1.2,12-3,24-3.8,36.1
	c-1,16-1.8,32.1-1.8,48.2c0.1,14.5,5.3,26.9,18,35.3c3.7,2.5,7.4,5.1,11.1,7.5c4.4,2.9,6.8,6.9,6.2,12.2
	c-1.1,10.5-2.3,21.1-3.9,31.5c-4.2,26.7-8.3,53.4-6.2,80.6c0.7,9.3,2.3,18.5,7.3,26.6c7.7,12.7,23.8,13.6,32.3,1.7
	c2.7-3.8,4.7-8.4,6.1-12.9c5-16.9,4.4-34.2,2.5-51.3c-2.4-22.1-5.1-44.1-8.9-66c-2.1-12.6,1-20.8,12.5-26.9
	c15.7-8.3,23.1-22.5,22.2-39.9c-1.3-25.8-3.6-51.6-6.1-77.3c-1-10.8-2.9-11.9-13.8-14.2c-1.3-0.3-2.6-0.5-4.2-0.7
	c-0.2,1.5-0.5,2.7-0.5,4c0,11.1,0,22.2,0,33.3c0,14.3,0.1,28.5,0,42.8c0,5.2-3.5,8.9-8.1,9c-4.9,0.1-8.4-3.5-8.7-8.9
	c-0.1-1-0.1-2-0.1-3c0-20.9,0.1-41.8,0.1-62.7c0-5.6,0-11.1,0-16.8c-6,0-11.2,0-16.5,0c-0.1,1-0.3,1.6-0.3,2.3
	c0,19.9,0.1,39.8,0.1,59.7c0,7.1,0,14.3-0.2,21.4c-0.1,3.9-2.2,6.6-6,7.6c-3.7,0.9-7.2,0.2-8.9-3.5c-1.1-2.3-1.7-5.1-1.7-7.6
	c-0.1-11.3,0-22.6,0-33.8C182.8,135.2,182.8,120.7,182.8,104.7z M291.3,103.5c0,4.6,0,8,0,11.5c0,6.8,0.1,13.6,0.1,20.4
	c0,30.8,0,61.6,0,92.5c0,30.7-0.2,61.3,0,92c0.1,19.2,0.5,38.4,1.7,57.6c0.4,6.6,2.9,13.2,5.1,19.5c1.5,4.2,5.3,6.2,9.8,6.4
	c4.2,0.2,6.3-2.6,8-5.7c1.5-2.8,2.9-5.6,3.6-8.7c6.9-28.2,6.9-56.6,0.2-84.7c-4.1-17.1-4.1-33.3,3.1-49.5
	c4.1-9.1,7.8-18.3,11.1-27.7c12.7-35.7,9-69.4-13.5-100.4C313.2,116.8,303.7,109.5,291.3,103.5z"/>
<path class="st0" d="M182.8,104.7c0,16,0,30.5,0,45.1c0,11.3-0.2,22.6,0,33.8c0,2.6,0.6,5.3,1.7,7.6c1.7,3.7,5.2,4.4,8.9,3.5
	c3.8-1,5.9-3.7,6-7.6c0.2-7.1,0.2-14.3,0.2-21.4c0-19.9-0.1-39.8-0.1-59.7c0-0.6,0.2-1.3,0.3-2.3c5.3,0,10.5,0,16.5,0
	c0,5.7,0,11.2,0,16.8c0,20.9-0.1,41.8-0.1,62.7c0,1,0,2,0.1,3c0.4,5.4,3.9,8.9,8.7,8.9c4.5-0.1,8-3.8,8.1-9c0.1-14.3,0-28.5,0-42.8
	c0-11.1-0.1-22.2,0-33.3c0-1.3,0.3-2.5,0.5-4c1.6,0.3,2.9,0.5,4.2,0.7c10.9,2.3,12.8,3.3,13.8,14.2c2.5,25.7,4.8,51.5,6.1,77.3
	c0.9,17.4-6.4,31.6-22.2,39.9c-11.6,6.1-14.7,14.3-12.5,26.9c3.7,21.9,6.5,44,8.9,66c1.9,17.2,2.5,34.5-2.5,51.3
	c-1.4,4.5-3.4,9.1-6.1,12.9c-8.5,11.9-24.6,11-32.3-1.7c-4.9-8.1-6.5-17.3-7.3-26.6c-2.1-27.2,2-53.9,6.2-80.6
	c1.6-10.5,2.8-21,3.9-31.5c0.6-5.3-1.8-9.3-6.2-12.2c-3.7-2.4-7.4-5-11.1-7.5c-12.6-8.4-17.9-20.8-18-35.3
	c-0.1-16.1,0.7-32.1,1.8-48.2c0.8-12.1,2.6-24.1,3.8-36.1c0.3-2.9,1.2-5,4.2-5.9C172.7,108.2,177.2,106.6,182.8,104.7z"/>
<path class="st0" d="M291.3,103.5c12.3,6,21.9,13.3,29.1,23.2c22.6,30.9,26.3,64.6,13.5,100.4c-3.3,9.4-7,18.6-11.1,27.7
	c-7.2,16.2-7.2,32.4-3.1,49.5c6.7,28.1,6.7,56.5-0.2,84.7c-0.7,3-2.2,5.9-3.6,8.7c-1.7,3.1-3.8,5.9-8,5.7c-4.6-0.2-8.4-2.2-9.8-6.4
	c-2.2-6.4-4.7-12.9-5.1-19.5c-1.1-19.2-1.5-38.4-1.7-57.6c-0.2-30.7,0-61.3,0-92c0-30.8,0-61.6,0-92.5c0-6.8,0-13.6-0.1-20.4
	C291.3,111.5,291.3,108.1,291.3,103.5z"/>
</svg>
