<?xml version="1.0" encoding="utf-8"?>
<!-- Generator: Adobe Illustrator 22.1.0, SVG Export Plug-In . SVG Version: 6.00 Build 0)  -->
<svg version="1.1" id="Layer_1" xmlns="http://www.w3.org/2000/svg" xmlns:xlink="http://www.w3.org/1999/xlink" x="0px" y="0px"
	 viewBox="0 0 500 500" style="enable-background:new 0 0 500 500;" xml:space="preserve">
<style type="text/css">
	.st0{fill:#FFFFFF;}
</style>
<path d="M81.3,284.3c-12.9,1.8-20.7-1.8-24.7-11.4c-2.7-6.6-2.2-13.2,2.3-18.6c8.3-10.1,14.7-22.1,27.6-28.1
	c-5.4-6.8-8.8-13.6-5.9-22c2.8-8.3,8.8-12.7,17.9-14.6c-8.4-10.8-9.9-22.8-7-35.4c3.1-13.7,8.2-26.5,16.1-38.1
	c18.8-27.5,44.8-42.9,77.7-48c33-5.2,66.1-7.1,99.4-5.1c25.1,1.5,50.6,2.8,74.5,11.5c41.4,15.1,65.9,45,72.6,88.9
	c1.5,9.7-1.6,18.4-7.5,26.3c15.4,3.4,24.9,19,12.3,36c13.7,5.2,19.7,17.8,27.6,28.6c5.9,8.2,6.5,16.5,1.6,23.9
	c-4.8,7.1-12.4,9.7-22.2,7.6c-0.5-0.1-1,0-1,0c0.3,11.8,0.6,23.6,0.7,35.3c0.1,12.1-5.2,20.9-16.3,26.3c-1.5,0.7-2.8,3.1-3,4.8
	c-1,7.8-1.1,15.7-2.3,23.4c-2.7,17.6-18.1,31.8-35.8,33.3c-2.4,0.2-4.7,0.3-7.1,0.3c-78.3,0-156.5-0.3-234.8,0.2
	c-21.8,0.1-43.3-14-44.7-42c-0.1-2-0.3-4-0.2-6c0.1-7.4-0.5-13.6-8.9-17.5c-7.2-3.4-10.6-11-10.9-19.1c-0.3-9.9-0.3-19.7,0-29.6
	C79.3,291.4,80.5,288.1,81.3,284.3z M261.1,189.7C261.1,189.7,261.1,189.7,261.1,189.7c6.8,0,13.5,0,20.3,0c37.6,0,75.3,0,112.9,0
	c15.4,0,26.9-11.8,24.6-25.7c-5.6-34.1-23.9-59.1-55.2-74c-20.4-9.7-42.7-11.3-64.6-12.9c-23.3-1.6-46.7-1.9-70-0.9
	c-17.8,0.8-35.8,2.8-53.1,7c-39.8,9.8-63.4,36.3-72.2,76c-3.7,16.8,7.5,30.3,24.7,30.4C172.7,189.7,216.9,189.7,261.1,189.7z
	 M430.3,315.1c0-5.9,0-11,0-16.1c-0.1-11.1-5-16.1-16-16.1c-26.7,0-53.4,0-80,0c-75.1,0-150.2,0-225.4,0c-12.3,0-16.8,4.5-16.9,16.9
	c0,6.2,0,12.4,0,18.6c0,12.9,4.6,17.5,17.4,17.5c84.6,0,169.3,0,253.9,0c17.4,0,34.7,0,52.1,0c5.6,0,10.2-1.5,13.1-7.8
	c-3.2,0-5.7,0-8.2,0c-19.6,0-39.1,0-58.7,0c-4.4,0-7.8-1.8-7.7-6.5c0-4.7,3.2-6.6,7.7-6.6c2.9,0,5.8,0,8.8,0
	C390,315.1,409.8,315.1,430.3,315.1z M111.2,349.3c0.4,5.6,1,10.9,1.2,16.1c0.9,19.6,12.2,30.6,31.7,30.6c29.1,0,58.1,0,87.2,0
	c49.4,0,98.7,0,148.1,0c13.8,0,25-6.9,28.2-19.1c2.4-8.8,2.5-18.2,3.7-27.6C310.7,349.3,211.1,349.3,111.2,349.3z M111.9,232.8
	c-11.7,0.3-21.7,4-29.4,12.7c-4.4,4.9-8.2,10.3-12.3,15.4c-2.6,3.4-3,6.8,0.6,9.6c3.6,2.8,6.8,1.4,9.4-1.9c2.7-3.4,5.8-6.7,8.1-10.4
	c9.2-14.4,30.5-17.3,44.5-2.9c17.8,18.5,42,18,60.1-0.2c13.4-13.5,29.4-13.7,42.9-0.3c17.4,17.2,41.6,17.3,59.1,0
	c13.3-13.1,28.5-13.3,42.1-0.5c6.1,5.8,13.1,9.9,21.5,11.2c13.7,2,25.5-1.6,35.7-11.3c13.4-12.8,32.2-10.6,42.5,4.5
	c2.7,3.9,5.4,7.8,8.1,11.7c2.1,3.1,5.5,4.1,7.9,1.8c1.8-1.7,3.4-6.2,2.5-7.8c-4.9-7.8-9.7-16.3-16.5-22.3
	c-15-13.3-37.5-11.8-52.5,1.8c-13.9,12.7-28.1,12.6-41.6-0.3c-16.6-15.8-40.8-15.6-57.1,0.4c-14.5,14.3-29.4,14.2-44,0
	c-16.8-16.4-41.7-16.8-57.7,0.5c-13,14.1-32.9,14.7-45.4,0.2C132.8,236.4,122.8,233.2,111.9,232.8z M260.9,217.6
	C260.9,217.6,260.9,217.6,260.9,217.6c49.9,0,99.8,0,149.7,0c4.2,0,8.4,0.1,12.6-0.3c4-0.4,6.7-3.4,5.9-7.1c-0.5-2.6-3.2-5.1-5.5-7
	c-1.1-0.9-3.5-0.5-5.3-0.5c-104.5,0-209.1,0-313.6,0c-2,0-4.1-0.1-6,0.3c-4,0.7-6,3.5-5.9,7.4c0.2,3.9,2.3,6.5,6.4,7
	c2,0.2,4,0.1,6,0.1C157.1,217.6,209,217.6,260.9,217.6z M145.2,230.9c14.6,18.9,27.1,11.6,33.9,0C168.1,230.9,157,230.9,145.2,230.9
	z M299.3,269.3c11.4,0,22.4,0,33.8,0C320.5,254.4,311.3,254.4,299.3,269.3z M231.5,269.4c-14-18-25.9-11.5-33.2,0
	C209.3,269.4,220.1,269.4,231.5,269.4z M249.1,230.8c11.7,16.4,24.7,12.2,31.8,0C270.5,230.8,260.2,230.8,249.1,230.8z M96.2,269.8
	c10.2,0,20.5,0,31.6,0C117.4,255,103.5,255.6,96.2,269.8z M397.9,269.1c10.4,0.7,20.8,1.3,30.7,2
	C421.5,255.6,409.5,254.6,397.9,269.1z M380.9,230.7c-9.6,0-18.1,0-26.6,0c-1,0-2,0.1-3.3,0.2C359.3,243,368.8,243.1,380.9,230.7z"
	/>
<path class="st0" d="M261.1,189.7c-44.2,0-88.4,0-132.7,0c-17.2,0-28.4-13.6-24.7-30.4c8.8-39.7,32.5-66.2,72.2-76
	c17.2-4.3,35.3-6.3,53.1-7c23.3-1,46.8-0.7,70,0.9c21.9,1.5,44.2,3.2,64.6,12.9c31.3,14.9,49.6,39.9,55.2,74
	c2.3,13.9-9.3,25.7-24.6,25.7c-37.6,0-75.3,0-112.9,0C274.6,189.7,267.9,189.7,261.1,189.7C261.1,189.7,261.1,189.7,261.1,189.7z
	 M197.4,111.9c5.1,0.1,8.3-2.3,8.4-6.5c0.1-4.1-2.9-6.6-8.1-6.7c-5.1-0.1-8.4,2.4-8.5,6.4C189.1,109,192.5,111.9,197.4,111.9z
	 M284.4,98.7c-5.2-0.1-8.4,2.3-8.5,6.3c-0.2,4.1,3,6.8,8,6.9c5.2,0.1,8.2-2.2,8.4-6.4C292.4,101.2,289.7,98.8,284.4,98.7z
	 M171.9,133.5c4.9,0,8.7-2.9,8.2-6.8c-0.6-4.4-3.4-6.4-8-6.4c-5.6,0.1-8.8,2.4-8.7,6.7C163.5,131.2,166.6,133.5,171.9,133.5z
	 M241.1,98.8c-5.3,0-8.3,2.3-8.4,6.3c-0.1,4.1,3.1,6.8,8.1,6.8c5,0.1,8.4-2.5,8.5-6.5C249.4,101.5,246.1,98.8,241.1,98.8z
	 M327.7,98.7c-5.3-0.1-8.2,2.2-8.3,6.4c-0.1,4.3,2.8,6.8,7.9,6.8c5,0.1,8.3-2.5,8.4-6.4C335.9,101.4,332.7,98.8,327.7,98.7z
	 M215.1,133.5c5.3-0.1,8.2-2.5,8.1-6.7c-0.1-4.2-3.1-6.4-8.4-6.4c-5.2,0.1-8.2,2.6-8.2,6.7C206.7,131,210,133.6,215.1,133.5z
	 M257.9,120.4c-5.1,0.1-8.1,2.6-8,6.8c0.2,4,3.4,6.4,8.5,6.3c5.1-0.1,8.1-2.7,8-6.9C266.3,122.5,263.3,120.3,257.9,120.4z
	 M345,133.5c5.1-0.1,8.2-2.8,8-6.9c-0.2-4-3.3-6.3-8.5-6.3c-5,0.1-8.3,2.8-8.1,6.8C336.6,131.2,339.9,133.6,345,133.5z M301.6,133.5
	c5.1,0,8.2-2.6,8.1-6.7c-0.1-4.1-3.2-6.5-8.3-6.4c-5.3,0-8.1,2.4-8,6.6C293.5,131.3,296.2,133.5,301.6,133.5z"/>
<path class="st0" d="M430.3,315.1c-20.5,0-40.3,0-60,0c-2.9,0-5.8,0-8.8,0c-4.5,0-7.7,1.9-7.7,6.6c0,4.8,3.3,6.5,7.7,6.5
	c19.6,0,39.1,0,58.7,0c2.5,0,5,0,8.2,0c-2.9,6.2-7.5,7.8-13.1,7.8c-17.4,0-34.7,0-52.1,0c-84.6,0-169.3,0-253.9,0
	c-12.8,0-17.3-4.6-17.4-17.5c0-6.2,0-12.4,0-18.6c0.1-12.4,4.5-16.9,16.9-16.9c75.1,0,150.2,0,225.4,0c26.7,0,53.4,0,80,0
	c11,0,15.9,5,16,16.1C430.3,304.1,430.3,309.2,430.3,315.1z M215.4,315.1C215.4,315.1,215.4,315.1,215.4,315.1c-11.7,0-23.3,0-35,0
	c-5.5,0-8.2,2.3-8.3,6.5c0,4.2,2.8,6.5,8.3,6.5c23.2,0,46.3,0,69.5,0c4.4,0,8.1-1,8.4-6.3c0.3-4.6-2.5-6.8-8.5-6.8
	C238.4,315,226.9,315.1,215.4,315.1z M308.7,315.1c-8,0-16,0-24.1,0c-5.8,0-9,2.4-8.6,6.7c0.4,5.1,3.9,6.4,8.5,6.4
	c16.2,0,32.5-0.1,48.7,0c4.6,0,8-1.4,8.4-6.5c0.3-4.1-2.9-6.6-8.2-6.6C325.1,315,316.9,315.1,308.7,315.1z"/>
<path class="st0" d="M111.2,349.3c99.9,0,199.4,0,300.1,0c-1.2,9.4-1.4,18.8-3.7,27.6c-3.3,12.2-14.4,19.1-28.2,19.1
	c-49.4,0-98.7,0-148.1,0c-29.1,0-58.1,0-87.2,0c-19.5,0-30.8-11-31.7-30.6C112.2,360.2,111.6,355,111.2,349.3z"/>
<path class="st0" d="M111.9,232.8c10.8,0.4,20.9,3.7,28.2,12.1c12.6,14.5,32.4,13.9,45.4-0.2c16-17.3,40.9-16.9,57.7-0.5
	c14.6,14.3,29.5,14.3,44,0c16.3-16.1,40.5-16.3,57.1-0.4c13.5,12.8,27.7,12.9,41.6,0.3c15-13.7,37.5-15.1,52.5-1.8
	c6.8,6,11.5,14.5,16.5,22.3c1,1.6-0.6,6.1-2.5,7.8c-2.5,2.3-5.8,1.4-7.9-1.8c-2.7-3.9-5.4-7.8-8.1-11.7
	c-10.3-15.2-29.1-17.4-42.5-4.5c-10.1,9.7-22,13.3-35.7,11.3c-8.4-1.2-15.4-5.4-21.5-11.2c-13.6-12.8-28.8-12.6-42.1,0.5
	c-17.5,17.2-41.7,17.2-59.1,0c-13.5-13.3-29.5-13.2-42.9,0.3c-18.1,18.3-42.3,18.7-60.1,0.2c-13.9-14.5-35.3-11.5-44.5,2.9
	c-2.3,3.7-5.4,6.9-8.1,10.4c-2.6,3.3-5.8,4.7-9.4,1.9c-3.6-2.8-3.2-6.2-0.6-9.6c4.1-5.2,7.9-10.5,12.3-15.4
	C90.2,236.8,100.3,233,111.9,232.8z"/>
<path class="st0" d="M260.9,217.6c-51.9,0-103.8,0-155.7,0c-2,0-4,0.1-6-0.1c-4-0.5-6.2-3.1-6.4-7c-0.2-3.9,1.9-6.7,5.9-7.4
	c2-0.4,4-0.3,6-0.3c104.5,0,209.1,0,313.6,0c1.8,0,4.2-0.5,5.3,0.5c2.3,1.9,4.9,4.4,5.5,7c0.8,3.7-1.9,6.7-5.9,7.1
	c-4.2,0.4-8.4,0.3-12.6,0.3C360.7,217.7,310.8,217.6,260.9,217.6C260.9,217.6,260.9,217.6,260.9,217.6z"/>
<path class="st0" d="M145.2,230.9c11.8,0,22.8,0,33.9,0C172.3,242.5,159.8,249.9,145.2,230.9z"/>
<path class="st0" d="M299.3,269.3c12-14.9,21.2-14.8,33.8,0C321.8,269.3,310.7,269.3,299.3,269.3z"/>
<path class="st0" d="M231.5,269.4c-11.5,0-22.2,0-33.2,0C205.6,257.9,217.5,251.4,231.5,269.4z"/>
<path class="st0" d="M249.1,230.8c11,0,21.4,0,31.8,0C273.8,243,260.8,247.2,249.1,230.8z"/>
<path class="st0" d="M96.2,269.8c7.3-14.3,21.2-14.8,31.6,0C116.8,269.8,106.5,269.8,96.2,269.8z"/>
<path class="st0" d="M397.9,269.1c11.6-14.5,23.6-13.4,30.7,2C418.6,270.4,408.3,269.7,397.9,269.1z"/>
<path class="st0" d="M380.9,230.7c-12.2,12.4-21.6,12.3-29.9,0.2c1.3-0.1,2.3-0.2,3.3-0.2C362.8,230.7,371.3,230.7,380.9,230.7z"/>
<path d="M197.4,111.9c-4.9-0.1-8.3-2.9-8.2-6.8c0.1-4,3.4-6.4,8.5-6.4c5.2,0.1,8.2,2.6,8.1,6.7C205.7,109.6,202.6,112,197.4,111.9z"
	/>
<path d="M284.4,98.7c5.3,0.1,8,2.4,7.8,6.8c-0.1,4.2-3.2,6.5-8.4,6.4c-5-0.1-8.1-2.8-8-6.9C276.1,101,279.2,98.7,284.4,98.7z"/>
<path d="M171.9,133.5c-5.3,0-8.4-2.3-8.5-6.4c-0.1-4.3,3.1-6.7,8.7-6.7c4.5-0.1,7.4,2,8,6.4C180.5,130.6,176.8,133.5,171.9,133.5z"
	/>
<path d="M241.1,98.8c5,0,8.3,2.7,8.2,6.7c-0.1,3.9-3.5,6.5-8.5,6.5c-5-0.1-8.2-2.7-8.1-6.8C232.8,101,235.8,98.7,241.1,98.8z"/>
<path d="M327.7,98.7c5.1,0.1,8.2,2.7,8.1,6.7c-0.1,4-3.5,6.5-8.4,6.4c-5.1-0.1-8-2.6-7.9-6.8C319.4,100.9,322.3,98.7,327.7,98.7z"/>
<path d="M215.1,133.5c-5.1,0.1-8.4-2.4-8.4-6.4c-0.1-4.1,3-6.6,8.2-6.7c5.3-0.1,8.3,2.2,8.4,6.4C223.2,131,220.3,133.4,215.1,133.5z
	"/>
<path d="M257.9,120.4c5.4-0.1,8.4,2.1,8.5,6.2c0.1,4.2-2.9,6.8-8,6.9c-5.2,0.1-8.4-2.3-8.5-6.3C249.8,123,252.8,120.4,257.9,120.4z"
	/>
<path d="M345,133.5c-5.1,0.1-8.4-2.4-8.6-6.4c-0.2-4,3.1-6.7,8.1-6.8c5.2-0.1,8.4,2.2,8.5,6.3C353.1,130.8,350.1,133.4,345,133.5z"
	/>
<path d="M301.6,133.5c-5.4,0-8.2-2.2-8.3-6.5c-0.1-4.3,2.7-6.6,8-6.6c5.1,0,8.3,2.3,8.3,6.4C309.8,130.9,306.7,133.5,301.6,133.5z"
	/>
<path d="M215.4,315.1c11.5,0,23,0,34.5,0c6,0,8.7,2.2,8.5,6.8c-0.3,5.3-4,6.3-8.4,6.3c-23.2,0-46.3,0-69.5,0c-5.5,0-8.3-2.3-8.3-6.5
	c0-4.2,2.8-6.5,8.3-6.5C192.1,315,203.7,315.1,215.4,315.1C215.4,315.1,215.4,315.1,215.4,315.1z"/>
<path d="M308.7,315.1c8.2,0,16.4-0.1,24.6,0c5.3,0,8.5,2.5,8.2,6.6c-0.4,5.1-3.8,6.5-8.4,6.5c-16.2-0.1-32.5,0-48.7,0
	c-4.5,0-8.1-1.3-8.5-6.4c-0.3-4.3,2.9-6.7,8.6-6.7C292.6,315,300.6,315.1,308.7,315.1z"/>
</svg>
