<?xml version="1.0" encoding="utf-8"?>
<!-- Generator: Adobe Illustrator 22.1.0, SVG Export Plug-In . SVG Version: 6.00 Build 0)  -->
<svg version="1.1" id="Layer_1" xmlns="http://www.w3.org/2000/svg" xmlns:xlink="http://www.w3.org/1999/xlink" x="0px" y="0px"
	 viewBox="0 0 500 500" style="enable-background:new 0 0 500 500;" xml:space="preserve">
<style type="text/css">
	.st0{fill:#FFFFFF;}
</style>
<path d="M86.8,223.5c-9.6,10.5-20,14.3-32.5,8.9c-10.2-4.5-15.7-12.9-15.3-23.9c0.5-14.8,9.3-23,23.4-25.8
	c-0.3-16.1,4.8-25.6,15.9-29.9c10.1-4,21.9-1.4,29.1,6.4c7.9,8.6,8.6,19.4,1.9,33.1c9.3,7.2,18.5,14.7,29.8,18.9
	c1,0.4,2.8,0.1,3.6-0.5c11.5-9.1,24.6-15,38.7-18.6c0.3-0.1,0.5-0.4,1.1-0.9c-3.9-4.8-7.8-9.5-11.7-14.3c-2.2-2.8-3.8-0.5-5.6,0.5
	c-15.3,8.9-34.8,0.5-38.5-16.6c-3.6-16.4,8.4-31.4,25.1-31.6c1.3,0,2.6,0,3.5,0c2-4.9,3.2-9.9,5.9-14c8.1-12.6,25.1-15.2,37.1-6.1
	c11.8,8.9,13.7,26.4,3.7,37.5c-2.8,3.1-2.1,4.6,0,7.5c10.7,14.5,24.5,25.2,40.2,33.6c2.2,1.2,5,1.8,7.6,1.8
	c31.2,0.2,62.5-0.8,93.7,0.7c37.9,1.8,68.7,19.1,91.9,49.2c15.9,20.7,24,44.4,25.3,70.4c0.7,14.4-2.3,28-9.4,40.8
	c7.4,5.5,10.7,12.6,9,21.6c-2.4,13.1-12.6,21.3-27.1,21.4c-19.1,0.2-38.3,0.1-57.4,0.1c-20,0-40-0.1-60,0c-7.9,0-15.3-1.4-22.2-5.5
	c-1.3-0.8-3.1-1.1-4.7-1.1c-27.5,0-55.1,0-82.6,0c-30.7,0-57.1-10.5-77.1-34.1c-25.2-29.7-31-63.5-17.7-100.3
	c1.5-4.2,1.9-7.1-1.8-10.1C102.3,236.4,94.7,230.1,86.8,223.5z M155.4,216.8c11.4,3.2,21.6,6,31.9,8.9c22.1,6.2,44.4,11.8,65,22.5
	c24,12.5,37.6,39.8,31.9,64.8c-5.1,22.2-18.3,37.7-40.1,44.6c-23.4,7.4-44,1-61.5-15.9c-16.8-16.3-28.8-36.2-41.6-55.5
	c-5.9-8.9-11.8-17.8-18.1-27.3c-0.8,1.7-1.2,2.6-1.5,3.5c-16.6,52.5,19.6,107.1,74,111.4c27.6,2.2,55.4,0.7,83.1,0.9
	c0.6,0,1.2-0.3,1.8-0.4c-1.1-4.2-2.7-8.2-3.1-12.2c-0.4-4.3,0-8.7,0.6-13c0.8-5.5,3.8-8,7.8-7.2c4,0.7,5.5,4.1,4.5,9.6
	c-3.1,16.8,6.9,29.6,24,29.6c40,0.2,79.9,0.1,119.9,0c2.1,0,4.4-0.4,6.4-1.2c5.3-2,8.9-8.2,8-13.2c-0.8-4.5-3.5-6-11.1-6
	c-23.5,0-47,0-70.5,0c-2.2,0-4.4-0.2-6.5-0.5c-5.2-0.8-8.6-3.8-10.1-8.7c-1.5-4.8-0.7-9.4,3.3-12.9c3.4-3,7-5.7,10.7-8.4
	c3.2-2.3,6.6-2.8,9.4,0.6c2.5,3,1.7,6.3-2.2,9.5c-2.8,2.3-5.7,4.4-9.7,7.4c3,0.2,4.6,0.3,6.2,0.3c18.8,0,37.6,0.1,56.4,0.1
	c15.8,0,17.6-1.4,21.7-16.8c0.1-0.3,0.2-0.7,0.2-1c5.2-21,1.6-41.4-7.2-60.3c-20.8-44.5-56.5-67.5-105.7-68c-42-0.4-84-0.1-126,0
	c-5,0-10.1,0.2-15.1,0.8C179.4,204.3,167.4,208.8,155.4,216.8z M120.1,233.3c13.5,20,26.6,39.5,39.8,58.9
	c11,16.1,21.4,32.6,36.7,45.2c20.4,16.8,51.5,13.2,66.7-7.7c16.3-22.3,11.4-52.8-11.6-67c-10-6.2-21.2-11-32.4-14.6
	c-25.4-8.1-51.2-15-76.8-22.4c-4.7-1.4-10.2-4.9-13.8-3.6C124.8,223.7,122.7,229.8,120.1,233.3z M202.6,173.7
	c-5.4-6.4-10.3-12.3-15.2-18.2c-6.1-7.2-5.7-9.5,2.1-14.5c6.5-4.1,8.5-12,4.8-18.4c-3.7-6.2-12.2-8.4-18.5-4.7
	c-6.5,3.8-8.6,11.6-5,18.3c0.7,1.3,2.1,2.7,2,3.9c-0.2,2.4-0.7,5.6-2.3,6.9c-1.4,1.1-4.5,0.4-6.8,0.1c-1-0.1-1.8-1.5-2.7-2.2
	c-6.2-5.1-14.4-4.6-19.3,1.3c-4.7,5.7-4.1,14.3,1.4,19c5.8,4.9,14.1,4.1,19.3-1.8c5.4-6.2,8.4-6.1,13.6,0.2
	c5.1,6.2,10.2,12.3,15.6,18.8C195.5,179.5,198.8,176.8,202.6,173.7z M118.4,214.4c-3.8-2.8-7.2-5.2-10.6-7.6
	c-3.5-2.6-7.1-5.1-10.5-7.7c-5-3.8-5.2-7-1-11.7c1.4-1.6,3.1-3.2,4-5c3.1-6.2,0.9-13.4-5-17.2c-5.7-3.7-13.3-2.4-17.7,2.9
	c-4.5,5.4-4.2,12.9,1.1,18.2c2.9,3,5.4,6,2.5,10c-2.8,3.8-6.3,2.4-9.9,0.6c-7.4-3.8-15.3-1.1-18.8,6c-3.2,6.5-0.3,14.9,6.3,17.9
	c7.2,3.4,14.6,0.5,18.4-7.1c3.2-6.6,6.1-7.4,12.2-3c6.8,4.8,13.5,9.7,20.7,14.9C112.9,221.9,115.4,218.4,118.4,214.4z M203.5,189.1
	c6.5,0,11.2,0,17.5,0c-3.8-2.8-6.4-4.7-9.3-6.9C209.2,184.4,206.9,186.3,203.5,189.1z"/>
<path class="st0" d="M155.4,216.8c12-7.9,23.9-12.4,37-14c5-0.6,10-0.8,15.1-0.8c42-0.1,84-0.4,126,0c49.3,0.5,84.9,23.5,105.7,68
	c8.8,18.9,12.4,39.3,7.2,60.3c-0.1,0.3-0.2,0.7-0.2,1c-4.2,15.4-5.9,16.8-21.7,16.8c-18.8,0-37.6,0-56.4-0.1c-1.6,0-3.2-0.2-6.2-0.3
	c3.9-3,6.8-5.1,9.7-7.4c3.9-3.1,4.7-6.4,2.2-9.5c-2.8-3.4-6.2-2.9-9.4-0.6c-3.7,2.6-7.3,5.4-10.7,8.4c-4,3.5-4.8,8-3.3,12.9
	c1.5,4.9,4.9,7.9,10.1,8.7c2.1,0.3,4.3,0.5,6.5,0.5c23.5,0,47,0,70.5,0c7.6,0,10.3,1.5,11.1,6c0.9,5-2.7,11.2-8,13.2
	c-2,0.8-4.2,1.2-6.4,1.2c-40,0.1-79.9,0.2-119.9,0c-17.1-0.1-27.1-12.8-24-29.6c1-5.5-0.5-8.9-4.5-9.6c-3.9-0.7-7,1.8-7.8,7.2
	c-0.6,4.3-1,8.7-0.6,13c0.4,4.1,2,8,3.1,12.2c-0.6,0.1-1.2,0.4-1.8,0.4c-27.7-0.2-55.5,1.3-83.1-0.9c-54.5-4.3-90.6-58.9-74-111.4
	c0.3-0.9,0.8-1.8,1.5-3.5c6.2,9.4,12.1,18.4,18.1,27.3c12.8,19.3,24.9,39.2,41.6,55.5c17.4,16.9,38,23.3,61.5,15.9
	c21.8-6.9,34.9-22.3,40.1-44.6c5.8-25-7.9-52.3-31.9-64.8c-20.6-10.7-42.9-16.3-65-22.5C177.1,222.8,166.8,219.9,155.4,216.8z
	 M417.8,281c6.5,0.2,9.2-4.7,6.6-9.9c-9.9-19.7-24.6-34.6-44.2-44.6c-4.6-2.4-8.2-1.7-10.1,1.8c-1.9,3.4-0.7,6.6,4.3,9.2
	c17.4,9,30.5,22.3,39.3,39.8C414.7,279,416.9,280.2,417.8,281z M342.3,228.8c3.1,0.1,5.4,0.9,7,0.2c2.3-1.1,4.9-3.1,5.6-5.2
	c1.1-3.2-1-6.1-4.5-6.6c-4.9-0.7-10-1.3-14.9-0.8c-2,0.2-4.7,3.1-5.3,5.3c-1,3.2,1.2,5.8,4.7,6.4
	C337.7,228.5,340.5,228.6,342.3,228.8z"/>
<path class="st0" d="M120.1,233.3c2.5-3.5,4.7-9.6,8.6-11.1c3.6-1.4,9.1,2.2,13.8,3.6c25.6,7.4,51.4,14.3,76.8,22.4
	c11.2,3.6,22.4,8.4,32.4,14.6c23.1,14.2,27.9,44.7,11.6,67c-15.2,20.9-46.4,24.5-66.7,7.7c-15.3-12.6-25.7-29.1-36.7-45.2
	C146.7,272.8,133.7,253.3,120.1,233.3z M247.9,278.5c-1-1-2.4-3.4-4.5-4.7c-15-9.4-31.9-13.9-48.7-18.6c-3.5-1-6.4,0.8-7.4,4.4
	c-1,3.6,0.8,6.3,4.3,7.4c16.3,5.1,32.8,9.6,47.7,18.5C243.3,287.7,247.9,284.3,247.9,278.5z M258.8,303.3c0.3-3.9-0.8-7.2-5.2-7.9
	c-4-0.6-6.7,1.8-7,5.6c-0.5,6.4-2.8,11.6-7.2,16.1c-2.6,2.7-2.5,5.9,0.3,8.5c2.8,2.6,5.9,2.4,8.6-0.2
	C254.6,319.5,258.4,312.2,258.8,303.3z"/>
<path class="st0" d="M202.6,173.7c-3.8,3.1-7.2,5.8-10.8,8.8c-5.4-6.5-10.5-12.7-15.6-18.8c-5.3-6.4-8.3-6.4-13.6-0.2
	c-5.2,5.9-13.5,6.7-19.3,1.8c-5.5-4.7-6.1-13.3-1.4-19c4.9-5.9,13.1-6.5,19.3-1.3c0.9,0.7,1.7,2.1,2.7,2.2c2.3,0.4,5.5,1.1,6.8-0.1
	c1.6-1.3,2-4.5,2.3-6.9c0.1-1.2-1.3-2.6-2-3.9c-3.7-6.7-1.6-14.5,5-18.3c6.4-3.7,14.9-1.5,18.5,4.7c3.8,6.4,1.7,14.3-4.8,18.4
	c-7.9,5-8.2,7.3-2.1,14.5C192.4,161.4,197.3,167.3,202.6,173.7z"/>
<path class="st0" d="M118.4,214.4c-2.9,4-5.5,7.4-8.3,11.2c-7.1-5.1-13.9-10-20.7-14.9c-6.1-4.3-8.9-3.6-12.2,3
	c-3.7,7.6-11.1,10.4-18.4,7.1c-6.6-3.1-9.5-11.4-6.3-17.9c3.5-7.1,11.4-9.8,18.8-6c3.6,1.8,7.1,3.2,9.9-0.6c2.9-4,0.5-7-2.5-10
	c-5.3-5.4-5.6-12.8-1.1-18.2c4.4-5.3,12-6.6,17.7-2.9c5.9,3.8,8.1,11,5,17.2c-1,1.9-2.6,3.4-4,5c-4.2,4.7-4,7.9,1,11.7
	c3.5,2.6,7,5.2,10.5,7.7C111.1,209.3,114.5,211.7,118.4,214.4z"/>
<path class="st0" d="M203.5,189.1c3.4-2.8,5.7-4.8,8.2-6.9c2.9,2.1,5.5,4,9.3,6.9C214.7,189.1,210,189.1,203.5,189.1z"/>
<path d="M417.8,281c-0.9-0.8-3.1-2-4.1-3.8c-8.9-17.5-21.9-30.7-39.3-39.8c-5-2.6-6.2-5.7-4.3-9.2c1.9-3.5,5.5-4.2,10.1-1.8
	c19.6,10.1,34.4,24.9,44.2,44.6C427,276.3,424.3,281.3,417.8,281z"/>
<path d="M342.3,228.8c-1.8-0.2-4.6-0.4-7.4-0.8c-3.5-0.6-5.7-3.1-4.7-6.4c0.7-2.2,3.3-5.1,5.3-5.3c4.9-0.5,10,0.1,14.9,0.8
	c3.4,0.5,5.5,3.5,4.5,6.6c-0.7,2.2-3.4,4.1-5.6,5.2C347.7,229.8,345.4,229,342.3,228.8z"/>
<path d="M247.9,278.5c0,5.8-4.7,9.2-8.5,6.9c-14.9-8.8-31.4-13.4-47.7-18.5c-3.5-1.1-5.3-3.8-4.3-7.4c1-3.6,3.9-5.4,7.4-4.4
	c16.8,4.7,33.7,9.2,48.7,18.6C245.5,275.1,246.9,277.5,247.9,278.5z"/>
<path d="M258.8,303.3c-0.4,8.9-4.2,16.1-10.5,22.2c-2.6,2.5-5.8,2.7-8.6,0.2c-2.8-2.6-2.9-5.8-0.3-8.5c4.4-4.6,6.7-9.8,7.2-16.1
	c0.3-3.8,3-6.2,7-5.6C258,296.1,259,299.4,258.8,303.3z"/>
</svg>
