<?xml version="1.0" encoding="utf-8"?>
<!-- Generator: Adobe Illustrator 22.1.0, SVG Export Plug-In . SVG Version: 6.00 Build 0)  -->
<svg version="1.1" id="Layer_1" xmlns="http://www.w3.org/2000/svg" xmlns:xlink="http://www.w3.org/1999/xlink" x="0px" y="0px"
	 viewBox="0 0 500 500" style="enable-background:new 0 0 500 500;" xml:space="preserve">
<style type="text/css">
	.st0{fill:#FFFFFF;}
</style>
<path d="M259.2,141c0-11,0-21.1,0-31.1c0-10.5,4.2-16,14.2-18.9c18-5.1,36.1-10.2,54.1-15.1c10.7-2.9,19.3,1.4,21.9,10.8
	c2.6,9-2.5,17.3-12.7,20.5c-12.6,3.9-25.1,7.7-37.8,11.4c-3,0.9-4.4,2.2-4.3,5.6c0.3,5.4,0.1,10.8,0.1,16.9c6,0,11.5,0,17.1,0
	c10,0.1,15.7,5.8,15.7,15.8c0,7-0.1,13.5-3.4,20.4c-2.6,5.4-1.5,12.7-1.8,19.2c-3.3,57.1-6.5,114.2-9.7,171.3
	c-0.4,6.5-0.3,13-1.3,19.4c-0.5,3.2-1.9,6.8-4.2,9c-2.9,2.9-3.6,5.8-3.6,9.5c-0.1,8.9-6.7,16.1-15.6,16.1c-31.2,0.2-62.4,0.2-93.7,0
	c-8.8-0.1-15.2-6.9-15.3-15.7c0-4.3-1.4-7.2-4.1-10.4c-2.4-3-3.9-7.4-4.2-11.3c-2.5-40.5-4.6-81-6.8-121.6c-1.5-26.7-3-53.3-4.5-80
	c-0.1-1.7-0.6-3.7-1.7-4.9c-7.9-8.6-5.7-18.7-3.5-28.1c1.5-6.7,7.8-8.8,14.6-8.8c27.8,0.1,55.6,0,83.4,0
	C254.2,141,256.3,141,259.2,141z M171.7,222.7c0,4.8-0.2,9.3,0,13.8c2.7,48.8,5.5,97.6,8.3,146.4c0.4,7,2.6,9.3,9.7,9.3
	c34.3,0,68.6,0,102.8,0c7.1,0,9.4-2.3,9.8-9.3c3-54.6,5.9-109.1,9.1-163.7c0.2-4.2-0.9-6.1-4.9-6.3c-7.7-0.3-15.6-1.6-23.2-0.5
	c-17.8,2.6-35.4,6.1-53.1,9.7C210.8,226.1,191.4,232.7,171.7,222.7z M312.1,204.3c0.5-8,0.9-15.3,1.4-22.6c-48.7,0-96.5,0-144.7,0
	c0.4,7,1.3,13.5,1,19.9c-0.4,7.8,4,11.6,10.1,14.1c3.4,1.4,7.4,2.6,10.9,2.4c10-0.8,20.2-1.6,29.9-3.8
	C250.7,207.5,280.2,198.7,312.1,204.3z M240.3,171.6c23.4,0,46.9,0,70.3,0c6.3,0,7.2-1,7.3-7.3c0-1.3,0-2.5,0-3.8
	c0-9.7-0.2-9.9-10.1-9.9c-44.2,0-88.4,0-132.5,0c-13.1,0-13.1,0-13.1,12.9c0,7,1,8,8.2,8C193.7,171.6,217,171.6,240.3,171.6z
	 M269,140.6c5.7,0,10.7,0,16.1,0c0-6.9,0.4-13.4-0.1-19.8c-0.5-6.3,2.2-8.9,8-10.5c13.9-3.8,27.6-8.2,41.3-12.5
	c4.8-1.5,7.2-5.1,5.8-8.7c-1.6-4.3-4.9-5.5-9.2-4.3c-18.7,5.2-37.5,10.3-56.1,15.9c-2.4,0.7-5.5,4.3-5.6,6.6
	C268.6,118.3,269,129.3,269,140.6z M293.5,401.9c-35.1,0-69.8,0-104.4,0c-1.2,7.9,0.8,10.4,8.3,10.4c29.2,0,58.4,0,87.6,0
	C292.4,412.3,294.3,410,293.5,401.9z"/>
<path class="st0" d="M171.7,222.7c19.7,10,39.1,3.4,58.6-0.6c17.6-3.6,35.3-7.1,53.1-9.7c7.5-1.1,15.4,0.2,23.2,0.5
	c4,0.2,5.2,2,4.9,6.3c-3.2,54.6-6.1,109.1-9.1,163.7c-0.4,7-2.7,9.3-9.8,9.3c-34.3,0-68.6,0-102.8,0c-7.1,0-9.3-2.3-9.7-9.3
	c-2.7-48.8-5.6-97.6-8.3-146.4C171.5,232.1,171.7,227.6,171.7,222.7z M272.4,278.9C272.4,278.9,272.4,278.9,272.4,278.9
	c3.4,0.1,6.9,0.1,10.3,0c8.6-0.2,14.7-5.8,15.2-14.4c0.3-7.2,0.3-14.4,0-21.6c-0.3-8.5-6.2-14.5-14.3-14.8c-7.6-0.3-15.2-0.3-22.7,0
	c-7,0.3-13,5.1-13.5,11.8c-0.6,9.1-0.6,18.4,0.1,27.5c0.5,6.5,6.5,11.2,13.1,11.5C264.4,279,268.4,278.9,272.4,278.9z M207.9,314.8
	c6.6-2,16-4.2,25-7.7c6-2.3,8.6-9.4,7-16c-1.6-6.8-3.5-13.6-5.5-20.3c-2.4-8.5-9-13.1-17.5-11.3c-7.7,1.6-15.4,3.7-22.8,6.3
	c-6.8,2.3-11,9.7-9.4,16.3c1.8,7.7,3.9,15.3,6.3,22.9C193,311.2,198.4,314.7,207.9,314.8z M232.9,324.9
	C232.9,325,232.9,325,232.9,324.9c-2.9,0-5.8,0-8.7,0.1c-10.8,0.2-16.7,6-16.9,16.8c-0.1,6.1-0.1,12.3,0,18.4
	c0.3,9.6,6.5,15.8,16.1,16c6.3,0.1,12.6,0.1,18.9,0c9.6-0.2,15.8-5.9,16.3-15.3c0.4-7,0.4-14.1,0-21.1c-0.5-9-6.4-14.5-15.5-14.9
	C239.8,324.8,236.4,324.9,232.9,324.9z M283.7,372.8c-1.9,0.2-3.5,0.2-5,0.6c-3.5,1-5.1,6.3-2.1,7.4c3.9,1.6,8.7,1.8,12.9,1.3
	c1.5-0.2,3.5-4.3,3.7-6.7c1-12.9,1.5-25.8,2.3-38.8c0.2-3.6-0.2-7-4.4-7.3c-4.4-0.3-4.8,3.2-5,6.7
	C285.3,348.3,284.5,360.5,283.7,372.8z M297.3,303.9C297.3,303.9,297.2,303.9,297.3,303.9c0-1.3,0.1-2.5,0.1-3.8
	c0.2-3.3-1-6.3-4.6-5.8c-1.8,0.3-4.1,3.1-4.7,5.2c-0.9,3-1,6.5-0.5,9.6c0.3,1.6,2.6,4.1,3.9,4c1.8,0,4-1.8,5-3.5
	C297.6,308.2,297.1,305.9,297.3,303.9z"/>
<path class="st0" d="M312.1,204.3c-31.9-5.6-61.5,3.2-91.3,10c-9.8,2.2-19.9,3-29.9,3.8c-3.6,0.3-7.5-1-10.9-2.4
	c-6.1-2.5-10.5-6.4-10.1-14.1c0.3-6.4-0.6-12.9-1-19.9c48.2,0,96,0,144.7,0C313.1,189,312.6,196.3,312.1,204.3z"/>
<path class="st0" d="M240.3,171.6c-23.3,0-46.5,0-69.8,0c-7.2,0-8.2-1-8.2-8c0-12.9,0-12.9,13.1-12.9c44.2,0,88.4,0,132.5,0
	c9.9,0,10.1,0.2,10.1,9.9c0,1.3,0,2.5,0,3.8c-0.1,6.2-1.1,7.2-7.3,7.3C287.1,171.6,263.7,171.6,240.3,171.6z"/>
<path class="st0" d="M269,140.6c0-11.4-0.3-22.3,0.3-33.3c0.1-2.4,3.2-5.9,5.6-6.6c18.6-5.6,37.3-10.7,56.1-15.9
	c4.2-1.2,7.6,0,9.2,4.3c1.3,3.7-1,7.2-5.8,8.7c-13.7,4.3-27.5,8.6-41.3,12.5c-5.8,1.6-8.6,4.1-8,10.5c0.5,6.4,0.1,12.9,0.1,19.8
	C279.6,140.6,274.7,140.6,269,140.6z"/>
<path class="st0" d="M293.5,401.9c0.8,8.1-1.1,10.4-8.6,10.4c-29.2,0-58.4,0-87.6,0c-7.5,0-9.5-2.6-8.3-10.4
	C223.7,401.9,258.4,401.9,293.5,401.9z"/>
<path d="M272.4,278.9c-4,0-7.9,0.2-11.9,0c-6.6-0.3-12.6-5-13.1-11.5c-0.7-9.1-0.7-18.4-0.1-27.5c0.5-6.6,6.5-11.5,13.5-11.8
	c7.6-0.3,15.2-0.3,22.7,0c8.1,0.3,13.9,6.4,14.3,14.8c0.3,7.2,0.3,14.4,0,21.6c-0.4,8.6-6.5,14.2-15.2,14.4
	C279.2,279,275.8,278.9,272.4,278.9C272.4,278.9,272.4,278.9,272.4,278.9z M272.3,269.4c3.2,0,6.5,0,9.7,0c3.9,0,6.1-2,6.2-5.9
	c0.1-6.7,0.2-13.3,0-20c-0.1-3.9-2.3-5.9-6.3-5.9c-3.4,0-6.9,0-10.3,0c-15.7-0.1-15.6-1.1-15.5,15.7
	C256.2,271,255.7,269.4,272.3,269.4z"/>
<path d="M207.9,314.8c-9.5-0.1-14.9-3.6-16.9-9.9c-2.4-7.5-4.5-15.2-6.3-22.9c-1.6-6.6,2.6-14,9.4-16.3c7.5-2.5,15.1-4.7,22.8-6.3
	c8.6-1.7,15.1,2.8,17.5,11.3c1.9,6.7,3.9,13.5,5.5,20.3c1.6,6.6-1.1,13.7-7,16C223.9,310.5,214.5,312.8,207.9,314.8z M231.3,294.9
	c-2.3-8.3-4-15.7-6.7-22.7c-0.6-1.7-4.7-3.4-6.9-3c-6.3,1.1-12.5,3.1-18.7,4.9c-4,1.1-5.5,3.8-4.5,7.8c1.6,6.3,3.4,12.5,5.1,18.7
	c1.1,3.9,3.7,5.2,7.4,4.3c6.6-1.6,13.2-3.3,19.7-5.4C228.6,298.7,229.9,296.2,231.3,294.9z"/>
<path d="M232.9,324.9c3.4,0,6.9-0.1,10.3,0c9,0.4,14.9,5.9,15.5,14.9c0.4,7,0.4,14.1,0,21.1c-0.5,9.4-6.7,15.1-16.3,15.3
	c-6.3,0.1-12.6,0.1-18.9,0c-9.6-0.2-15.9-6.4-16.1-16c-0.2-6.1-0.1-12.3,0-18.4c0.2-10.8,6.1-16.6,16.9-16.8
	C227.2,324.9,230,325,232.9,324.9C232.9,325,232.9,325,232.9,324.9z M233.2,366.6c2.9,0,5.8-0.1,8.7,0c5,0.2,7.4-2.2,7.4-7.1
	c0-6,0-11.9,0-17.9c0-5-2.6-7.2-7.4-7.1c-5.2,0.1-10.5,0-15.7,0c-7.7,0.1-9,1.4-9,9.3c0,2.2,0,4.3,0,6.5
	C216.9,367.3,216.2,366.8,233.2,366.6z"/>
<path d="M283.7,372.8c0.8-12.3,1.6-24.5,2.3-36.6c0.2-3.5,0.6-7,5-6.7c4.2,0.3,4.6,3.7,4.4,7.3c-0.8,12.9-1.3,25.9-2.3,38.8
	c-0.2,2.4-2.1,6.5-3.7,6.7c-4.2,0.6-9,0.3-12.9-1.3c-3-1.2-1.4-6.4,2.1-7.4C280.2,373,281.8,373,283.7,372.8z"/>
<path d="M297.3,303.9c-0.2,2,0.3,4.3-0.6,5.8c-1,1.7-3.3,3.4-5,3.5c-1.3,0-3.7-2.4-3.9-4c-0.5-3.1-0.4-6.6,0.5-9.6
	c0.6-2.1,2.8-4.9,4.7-5.2c3.5-0.5,4.7,2.5,4.6,5.8C297.3,301.4,297.3,302.7,297.3,303.9C297.2,303.9,297.3,303.9,297.3,303.9z"/>
<path class="st0" d="M272.3,269.4c-16.6,0-16.1,1.6-16.2-16.1c0-16.8-0.1-15.8,15.5-15.7c3.4,0,6.9,0,10.3,0c3.9,0,6.2,2,6.3,5.9
	c0.2,6.7,0.1,13.3,0,20c-0.1,3.9-2.3,5.9-6.2,5.9C278.8,269.4,275.5,269.4,272.3,269.4z"/>
<path class="st0" d="M231.3,294.9c-1.3,1.3-2.6,3.8-4.6,4.5c-6.4,2.2-13.1,3.8-19.7,5.4c-3.7,0.9-6.3-0.4-7.4-4.3
	c-1.7-6.2-3.5-12.4-5.1-18.7c-1-4,0.5-6.7,4.5-7.8c6.2-1.7,12.4-3.8,18.7-4.9c2.2-0.4,6.2,1.3,6.9,3
	C227.3,279.2,228.9,286.6,231.3,294.9z"/>
<path class="st0" d="M233.2,366.6c-17,0.2-16.3,0.7-16.1-16.3c0-2.2,0-4.3,0-6.5c0-7.9,1.3-9.3,9-9.3c5.2,0,10.5,0,15.7,0
	c4.9-0.1,7.4,2.2,7.4,7.1c0,6,0,11.9,0,17.9c0,4.9-2.4,7.3-7.4,7.1C238.9,366.5,236,366.6,233.2,366.6z"/>
</svg>
