<?xml version="1.0" encoding="utf-8"?>
<!-- Generator: Adobe Illustrator 22.1.0, SVG Export Plug-In . SVG Version: 6.00 Build 0)  -->
<svg version="1.1" id="Layer_1" xmlns="http://www.w3.org/2000/svg" xmlns:xlink="http://www.w3.org/1999/xlink" x="0px" y="0px"
	 viewBox="0 0 500 500" style="enable-background:new 0 0 500 500;" xml:space="preserve">
<style type="text/css">
	.st0{fill:#FFFFFF;}
</style>
<path d="M185.6,355.5c-7.9,1.1-15.3,2.2-22.8,3.1c-3.2,0.4-3.4,2.3-3.6,4.7c-2.2,20.7-24.1,30.7-40.9,18.4
	c-3.6-2.7-6.4-6.9-8.7-10.9c-1.7-2.9-2.8-4.4-6.5-3.8c-15,2.4-30.1,4.3-45.2,6.6c-9.6,1.5-11.7-0.1-11.7-10.1
	c0-6.9-0.3-13.8,0.2-20.6c0.2-2.7,1.2-5.9,3-7.9c46.2-52.5,92.5-104.8,138.8-157.2c22.8-25.8,45.6-51.4,68.2-77.3
	c3.6-4.1,6.9-4.9,12-3.1c35.8,12.7,69.2,29.5,98.1,54.6c30.4,26.5,51.7,59.3,66.7,96.4c2,5,3.6,10.2,5.8,15.1
	c6.9,15.4,7.6,31.6,6.8,48.1c-0.3,5.4-1.9,7.3-7.8,8.1c-25.9,3.7-51.9,7.3-77.8,10.9c-12.1,1.7-24.2,3.5-36.9,5.3
	c0.2,2.5,0.2,4.7,0.5,6.9c3.2,21.8-21.1,35-37.7,28c-7.5-3.2-12.1-11-11.7-20.4c0.1-2.3,0.3-4.5,0.6-7.6c-5.6,0.8-10.6,1.6-15.7,2.4
	c-5.5,0.8-11,1.7-16.6,2.2c-3.3,0.3-4.7,1.7-4.7,4.8c0.2,10.6,0,21.3,0.7,31.8c0.8,12-3.2,20.5-13.6,25.9
	c-9.7,5.1-21.8,3.7-29.8-3.4c-5.4-4.8-8.4-11-8.8-18.1c-0.5-8.6-0.3-17.3-0.5-26C186,360.2,185.8,358,185.6,355.5z M409.2,284
	c-0.8-2.5-1.2-4.4-2-6.2c-7.5-16.3-14.2-33.1-22.8-48.8c-15.7-28.5-37.8-51.7-64.5-70.3c-19.2-13.3-40-23.5-61.7-32.2
	c-4.6-1.8-7.1-1.2-10.3,2.4c-58.3,66.2-116.8,132.3-175.2,198.4c-1,1.2-1.9,2.5-3.6,4.6c9.1-1.2,17.1-2.4,25.2-3.4
	c9.9-1.2,15.5,2.2,19.2,11.4c1.4,3.6,2.3,7.5,3.4,11.3c1.3,4.6,2.1,9.3,3.7,13.7c2.4,6.7,8.8,10.2,15.6,9.1
	c6.4-1,10.3-5.8,10.8-13.3c0.2-3.4,0-6.9,0.3-10.3c0.8-9.7,3.9-18.4,10.6-25.8c10.1-10.9,31.2-10.6,36.5,6.9c1.2,4,2.6,8.2,2.9,12.4
	c0.7,11.9,0.7,23.9,1.3,35.8c0.2,4,0.4,8.3,1.7,12c2.4,7.1,8.9,10,16.2,8.1c7.3-2,10.5-6.8,9.6-14.6c-2-17.4-2.3-34.7,2.9-51.6
	c3.4-11,8.8-20.8,20.1-25.9c21.8-10,40,1.8,39.3,25.5c-0.1,2.6-0.3,5.2-0.5,7.8c-0.3,2.9-0.8,5.9-0.9,8.8
	c-0.4,7.6,3.8,11.3,11.3,10.2c9.2-1.4,13.3-7.5,13.2-16.8c-0.1-8.9-0.1-18.1,2-26.7c3.8-15.5,10.9-21.2,24.2-22.4
	c4.6-0.4,9.1-1.2,13.6-1.9C370.2,289.5,389.3,286.8,409.2,284z M431.1,280.5c-9.8-31.3-23.1-60.2-42.7-86.2
	c-30.8-40.9-72.6-66.2-119.8-83.5c-3.8-1.4-5.4,0.4-6.9,3.2c11,5.1,22.1,9.7,32.9,15.2c37.1,18.8,68.5,44.3,92,79
	c14.6,21.5,25.6,44.8,33.9,69.4c1.2,3.5,2.7,4.9,6.3,3.9C427.9,281.1,429.2,280.9,431.1,280.5z M325.1,322.8c2-0.2,3.6-0.3,5.2-0.5
	c10-1.4,20.1-2.9,30.1-4.3c23-3.3,46-6.4,68.9-9.8c1.4-0.2,3.6-1.5,3.7-2.5c0.4-3.8,0.2-7.7,0.2-11.9c-1.6,0-2.7-0.1-3.8,0
	c-30.4,4.3-60.8,8.6-91.3,12.9C330.2,307.7,325.1,313.9,325.1,322.8z M104.8,354.1c-1.1-3.8-1.6-7.1-3.2-9.8c-1-1.6-3.8-3.3-5.7-3.1
	c-11.4,1.3-22.7,3-34,4.7c-1.1,0.2-2.9,1.4-3,2.3c-0.3,4-0.1,7.9-0.1,11.9c2,0,3.1,0.1,4.2,0C76.6,358.1,90.2,356.2,104.8,354.1z
	 M242.4,334.9c9.4-1.4,18.3-2.6,27.1-4.1c2.1-0.4,4.1-1.6,6.2-2.4c-1.6-3.2-2.6-7-5-9.4c-1.6-1.6-5.2-1.7-7.9-1.6
	C252.6,317.5,245.6,323.5,242.4,334.9z M184.1,342.8c-1.2-10.1-4.2-13.4-10.5-13.2c-4.8,0.2-13.7,10.2-11.9,16.5
	C169.1,345,176.6,343.9,184.1,342.8z"/>
<path class="st0" d="M409.2,284c-19.9,2.8-39,5.5-58.1,8.2c-4.5,0.6-9.1,1.5-13.6,1.9c-13.3,1.2-20.4,6.9-24.2,22.4
	c-2.1,8.6-2.1,17.8-2,26.7c0.1,9.3-4,15.4-13.2,16.8c-7.4,1.1-11.7-2.6-11.3-10.2c0.2-2.9,0.7-5.9,0.9-8.8c0.2-2.6,0.4-5.2,0.5-7.8
	c0.7-23.8-17.5-35.5-39.3-25.5c-11.3,5.2-16.7,14.9-20.1,25.9c-5.2,16.9-4.9,34.2-2.9,51.6c0.9,7.8-2.2,12.7-9.6,14.6
	c-7.3,1.9-13.8-1-16.2-8.1c-1.3-3.8-1.5-8-1.7-12c-0.5-11.9-0.6-23.9-1.3-35.8c-0.2-4.2-1.6-8.3-2.9-12.4
	c-5.4-17.5-26.5-17.8-36.5-6.9c-6.8,7.3-9.9,16.1-10.6,25.8c-0.3,3.4-0.1,6.9-0.3,10.3c-0.4,7.5-4.4,12.3-10.8,13.3
	c-6.8,1.1-13.1-2.4-15.6-9.1c-1.6-4.4-2.4-9.1-3.7-13.7c-1-3.8-1.9-7.6-3.4-11.3c-3.7-9.2-9.4-12.6-19.2-11.4
	c-8,0.9-16.1,2.2-25.2,3.4c1.7-2.1,2.5-3.4,3.6-4.6c58.4-66.1,116.9-132.2,175.2-198.4c3.2-3.7,5.7-4.3,10.3-2.4
	c21.6,8.7,42.5,18.9,61.7,32.2c26.7,18.6,48.8,41.8,64.5,70.3c8.7,15.7,15.3,32.5,22.8,48.8C408.1,279.5,408.4,281.4,409.2,284z
	 M181,248.9c-0.1,0.3-0.2,0.6-0.4,0.9c-3.7,0.4-7.5,0.6-11.2,1.4c-11,2.5-21.5,6.4-28,16.5c-5,7.7-3.2,16.4,4.5,21.4
	c2.9,1.9,6.4,3.5,9.9,4.1c14.5,2.7,28.4,0.5,41-7.4c3-1.9,5.8-4.4,8-7.2c6.9-8.9,4.9-19.4-5.2-24.3
	C193.8,251.6,187.2,250.7,181,248.9z M339,236.7c-0.2,0.4-0.3,0.9-0.5,1.3c-13.2,0.4-25.7,2.8-35.7,12.4c-8.5,8.2-7,19.6,3.1,25.5
	c2.4,1.4,4.9,2.7,7.6,3.3c12.4,2.9,24.7,2.7,36.5-2.4c5-2.2,10-5.1,13.8-8.9c7.9-7.7,6.4-19.4-3.4-24.3
	C353.9,240.2,346.2,238.9,339,236.7z M272.8,149.3c-16.7,1.2-30.4,4.7-40.3,16.9c-7.4,9.2-5.1,20.7,5.8,25.2c6,2.5,13,3.6,19.5,3.4
	c13.3-0.4,25.4-4.9,34.5-15.2c8.6-9.8,5.6-22.3-6.5-27.1C281.1,150.7,276,150.1,272.8,149.3z M253.2,289.1c3.1-1.1,7.4-1.7,10.5-3.9
	c2.3-1.7,4.4-5.7,4.1-8.4c-0.2-2.5-3.3-5.8-5.9-6.8c-6.6-2.5-13.3-1.4-18.8,3.3c-5.3,4.4-4,11.6,2.4,14.1
	C247.7,288.2,250,288.4,253.2,289.1z M329.1,214.9c4.4-2,9.2-3.3,12.9-6.1c2.1-1.6,3.6-6,3-8.5c-0.6-2.5-4.1-5.6-6.7-5.9
	c-4.5-0.5-9.4,0.3-13.7,1.8c-5.5,1.9-7.8,6.6-6.7,11.1C319,211.4,322.8,213.8,329.1,214.9z M284.2,220.5c-0.1-5.9-4.8-9.6-10.6-8.3
	c-6.3,1.4-12.8,8.9-13.3,15.4c-0.4,5.7,4.3,10,9.9,9.2C277.2,235.8,284.3,227.4,284.2,220.5z M203.4,227.9
	c8.3-0.6,13.9-3.1,17.1-8.6c1.5-2.5,1.8-6.8,0.7-9.5c-0.9-2.1-4.8-3.8-7.5-4c-6.6-0.5-12.3,2.5-15.6,8.2c-1.5,2.5-1.8,6.8-0.7,9.5
	C198.3,225.9,202,227.1,203.4,227.9z"/>
<path class="st0" d="M431.1,280.5c-1.9,0.4-3.1,0.6-4.4,0.9c-3.5,1-5.1-0.3-6.3-3.9c-8.3-24.6-19.3-47.9-33.9-69.4
	c-23.5-34.7-54.9-60.2-92-79c-10.7-5.4-21.9-10.1-32.9-15.2c1.6-2.7,3.1-4.6,6.9-3.2c47.3,17.4,89,42.6,119.8,83.5
	C407.9,220.3,421.3,249.2,431.1,280.5z"/>
<path class="st0" d="M325.1,322.8c0-8.9,5.1-15,13-16.2c30.4-4.3,60.8-8.6,91.3-12.9c1.1-0.2,2.2,0,3.8,0c0,4.1,0.3,8-0.2,11.9
	c-0.1,1-2.3,2.3-3.7,2.5c-23,3.4-46,6.6-68.9,9.8c-10,1.4-20.1,2.9-30.1,4.3C328.7,322.5,327.1,322.6,325.1,322.8z"/>
<path class="st0" d="M104.8,354.1c-14.6,2.1-28.2,4.1-41.7,6c-1.1,0.2-2.3,0-4.2,0c0-4-0.2-8,0.1-11.9c0.1-0.9,1.9-2.1,3-2.3
	c11.3-1.7,22.6-3.5,34-4.7c1.8-0.2,4.7,1.5,5.7,3.1C103.2,346.9,103.6,350.3,104.8,354.1z"/>
<path class="st0" d="M242.4,334.9c3.2-11.4,10.2-17.3,20.4-17.6c2.7-0.1,6.3,0,7.9,1.6c2.4,2.4,3.4,6.2,5,9.4
	c-2.1,0.8-4.1,2.1-6.2,2.4C260.6,332.2,251.8,333.5,242.4,334.9z"/>
<path class="st0" d="M184.1,342.8c-7.5,1.1-15,2.2-22.4,3.3c-1.8-6.3,7.1-16.3,11.9-16.5C179.9,329.5,182.9,332.8,184.1,342.8z"/>
<path d="M181,248.9c6.2,1.7,12.8,2.7,18.6,5.4c10.1,4.9,12.1,15.4,5.2,24.3c-2.2,2.8-5,5.3-8,7.2c-12.6,7.9-26.5,10-41,7.4
	c-3.4-0.6-6.9-2.2-9.9-4.1c-7.7-5-9.5-13.7-4.5-21.4c6.5-10.1,17-13.9,28-16.5c3.6-0.8,7.5-1,11.2-1.4
	C180.8,249.5,180.9,249.2,181,248.9z M166.3,282.2c9.6-0.6,18.6-2.6,26.2-8.8c1.6-1.3,3.5-3.9,3.2-5.4c-0.3-1.6-3-3.3-5-4
	c-7.5-2.4-15.3-2.1-22.6,0.6c-5,1.8-9.9,4.4-14.1,7.6c-4.3,3.3-3.4,6.2,1.8,7.9C159.2,281.2,162.8,281.5,166.3,282.2z"/>
<path d="M339,236.7c7.2,2.2,14.9,3.5,21.5,6.9c9.8,5,11.3,16.6,3.4,24.3c-3.8,3.8-8.8,6.7-13.8,8.9c-11.8,5.1-24.1,5.3-36.5,2.4
	c-2.6-0.6-5.2-1.9-7.6-3.3c-10.1-6-11.6-17.4-3.1-25.5c9.9-9.5,22.5-11.9,35.7-12.4C338.7,237.6,338.8,237.1,339,236.7z M328,269.1
	c0-0.1,0.1-0.3,0.1-0.4c2.9-0.3,6-0.2,8.7-1.1c5.2-1.7,10.4-3.6,15.4-6c1.6-0.8,3.5-3.2,3.5-4.8c-0.1-1.4-2.5-3.3-4.2-3.9
	c-3.3-1.2-6.9-2.1-10.4-2.2c-10-0.5-19.6,1.2-27.8,7.3c-4.4,3.3-4.1,6.2,1.1,8.1C318.7,267.6,323.4,268.1,328,269.1z"/>
<path d="M272.8,149.3c3.2,0.8,8.3,1.4,12.9,3.2c12.1,4.8,15.2,17.3,6.5,27.1c-9,10.3-21.2,14.8-34.5,15.2
	c-6.5,0.2-13.5-0.9-19.5-3.4c-10.8-4.6-13.2-16.1-5.8-25.2C242.3,154,256.1,150.6,272.8,149.3z M254.1,182.7
	c11.1-0.8,20.5-3.2,27.9-10.5c4-4,3.3-7.2-2.1-8.5c-4.7-1.1-9.7-1.5-14.5-1c-8.1,0.8-15.6,3.5-21.6,9.4c-4.3,4.3-3.6,7.3,2.2,9.1
	C249,182.2,252.1,182.4,254.1,182.7z"/>
<path d="M253.2,289.1c-3.2-0.7-5.6-0.9-7.6-1.7c-6.4-2.5-7.6-9.7-2.4-14.1c5.5-4.7,12.2-5.8,18.8-3.3c2.6,1,5.6,4.3,5.9,6.8
	c0.2,2.7-1.8,6.7-4.1,8.4C260.7,287.4,256.3,288,253.2,289.1z"/>
<path d="M329.1,214.9c-6.3-1.1-10.2-3.4-11.2-7.7c-1.1-4.5,1.2-9.2,6.7-11.1c4.3-1.5,9.3-2.3,13.7-1.8c2.5,0.3,6,3.4,6.7,5.9
	c0.6,2.5-0.9,6.9-3,8.5C338.4,211.5,333.5,212.9,329.1,214.9z"/>
<path d="M284.2,220.5c0.1,7-7,15.3-13.9,16.3c-5.6,0.8-10.3-3.5-9.9-9.2c0.5-6.5,6.9-14,13.3-15.4
	C279.4,210.9,284.1,214.6,284.2,220.5z"/>
<path d="M203.4,227.9c-1.3-0.9-5-2-6.1-4.4c-1.1-2.6-0.8-6.9,0.7-9.5c3.3-5.6,9-8.6,15.6-8.2c2.7,0.2,6.6,1.9,7.5,4
	c1.2,2.6,0.8,6.9-0.7,9.5C217.2,224.8,211.7,227.3,203.4,227.9z"/>
<path class="st0" d="M166.3,282.2c-3.5-0.7-7.1-1-10.5-2.1c-5.3-1.7-6.1-4.7-1.8-7.9c4.2-3.2,9.1-5.8,14.1-7.6
	c7.3-2.7,15.1-2.9,22.6-0.6c2,0.6,4.7,2.3,5,4c0.3,1.6-1.6,4.1-3.2,5.4C184.9,279.6,175.9,281.6,166.3,282.2z"/>
<path class="st0" d="M328,269.1c-4.6-1-9.3-1.5-13.7-3.1c-5.2-1.8-5.5-4.8-1.1-8.1c8.3-6.1,17.8-7.8,27.8-7.3
	c3.5,0.2,7.1,1.1,10.4,2.2c1.8,0.6,4.2,2.5,4.2,3.9c0.1,1.6-1.8,4-3.5,4.8c-5,2.4-10.1,4.3-15.4,6c-2.7,0.9-5.8,0.7-8.7,1.1
	C328.1,268.8,328.1,269,328,269.1z"/>
<path class="st0" d="M254.1,182.7c-2-0.3-5.1-0.5-8.1-1.4c-5.8-1.8-6.5-4.9-2.2-9.1c6-5.9,13.5-8.6,21.6-9.4c4.8-0.5,9.8-0.1,14.5,1
	c5.4,1.3,6.1,4.5,2.1,8.5C274.6,179.6,265.2,182,254.1,182.7z"/>
</svg>
