<?xml version="1.0" encoding="utf-8"?>
<!-- Generator: Adobe Illustrator 22.1.0, SVG Export Plug-In . SVG Version: 6.00 Build 0)  -->
<svg version="1.1" id="Layer_1" xmlns="http://www.w3.org/2000/svg" xmlns:xlink="http://www.w3.org/1999/xlink" x="0px" y="0px"
	 viewBox="0 0 500 500" style="enable-background:new 0 0 500 500;" xml:space="preserve">
<style type="text/css">
	.st0{fill:#FFFFFF;}
</style>
<path d="M61.6,176.8c-6.4-8.1-10.7-17.1-11.4-27.5c-1.4-20.3,6.3-36.3,23.6-46.8c17.5-10.5,35.6-10.1,52.8,1.2
	c9.3,6.1,17.8,13.4,26.7,20.2c2.1,1.6,3.6,2,6.4,1c27.6-9.8,53.4-10.1,78.1,9.6c49.9,39.8,104.2,72.7,163.5,97.1
	c9,3.7,18.4,6.9,26.7,11.9c18.1,10.9,27.4,27.6,29.7,48.5c0.3,2.5,1.5,5.4,3.1,7.3c14.5,17,16.4,40.5,4.6,59.3
	c-11.7,18.5-33.7,27-55,21c-4.3-1.2-7.2-0.6-10.8,2.1c-18.4,13.5-39.7,18.8-61.9,21.9c-30.2,4.2-58.1-3.4-85.2-15.5
	c-66.6-29.7-128-67.8-185.2-112.8c-31.9-25.1-34.8-66.1-7.4-96C60.3,178.5,60.8,177.8,61.6,176.8z M391.7,372.7
	c-6.4-2.6-11.4-5-16.7-6.7c-12.3-3.9-17.8-12.2-18-25c-0.4-25.3-12.8-42.3-36.5-51.2c-39.3-14.7-76.6-33.5-111.7-56.4
	c-25.2-16.4-49.4-34.5-74-51.8c-23.1-16.2-54.4-11.4-71.4,10.9c-17,22.5-13.2,54.6,9.1,72.1c55.5,43.6,115.2,80.6,179.3,110.4
	c34.9,16.2,70.5,23.6,108.4,12C370.9,383.8,381.3,380,391.7,372.7z M445.3,287.2c-1.2-4-1.9-6.5-2.8-8.9
	c-6.3-16.2-18.8-25.4-34.5-32c-22.8-9.5-45.5-19.5-67.4-30.8c-41.2-21.2-79.2-47.3-115.7-75.8c-9.9-7.7-21.3-10.8-33.8-10.2
	c-1.9,0.1-3.8,0.6-4.9,0.8c4.8,7.2,10.5,13.6,13.9,21c6.1,13.3,19.3,22.4,34.9,19.7c2.4-0.4,4.9-0.5,7.3-0.3
	c23.4,1.9,41.4,12.6,51.4,34c7.3,15.6,18.2,22.2,35.2,20.6c6.6-0.6,13.7,0.1,20.1,1.8c17.9,4.8,31.3,15.7,39.1,32.8
	c1.9,4.2,4.6,6.6,8.8,8.2c8.4,3.3,16.7,6.9,25.1,10.3C429.2,281.3,436.6,284,445.3,287.2z M232.9,192.3c5.5,0.5,11.2,0.2,16.5,1.6
	c11.7,3.1,20.5,10.1,25.5,21.4c5.1,11.7,12.8,21,24.5,26.8c8.6,4.3,17.5,5.6,26.9,4.7c10-0.9,19.3,0.4,28.1,5.9
	c8.5,5.3,13,13.3,17.1,21.9c4.1,8.4,10.2,14.9,18.2,19.6c2.8,1.6,6,1.7,7.2-1.1c0.8-1.8-0.3-6-1.8-7c-8.9-5.3-13.6-13.7-18.2-22.4
	c-10-19-25.9-27.9-47.4-27c-3,0.1-5.9,0.5-8.9,0.4c-15.1-0.6-26.6-7.2-33.9-20.7c-1.7-3.1-3.1-6.2-4.9-9.2
	c-9.5-16.2-23.9-25.8-42.6-24.3c-24.9,2-41.8-6.7-51.3-29.9c-3.2-7.8-9.7-13-16.8-17.4c-2.9-1.8-5.7-2-7.7,1.2c-1.9,3-0.6,5.5,2.2,7
	c8.4,4.7,13.1,12.2,17.2,20.5C192.9,185.1,210.1,194,232.9,192.3z"/>
<path class="st0" d="M391.7,372.7c-10.4,7.3-20.8,11.1-31.5,14.4c-37.9,11.6-73.5,4.2-108.4-12c-64.1-29.8-123.8-66.8-179.3-110.4
	c-22.3-17.5-26.1-49.6-9.1-72.1c17-22.4,48.3-27.2,71.4-10.9c24.6,17.3,48.8,35.4,74,51.8c35.1,22.9,72.4,41.7,111.7,56.4
	c23.7,8.9,36.1,25.9,36.5,51.2c0.2,12.8,5.7,21.1,18,25C380.3,367.7,385.3,370.1,391.7,372.7z"/>
<path class="st0" d="M445.3,287.2c-8.7-3.3-16.1-5.9-23.3-8.8c-8.4-3.3-16.7-7-25.1-10.3c-4.1-1.6-6.9-4-8.8-8.2
	c-7.8-17-21.2-27.9-39.1-32.8c-6.4-1.7-13.5-2.5-20.1-1.8c-17.1,1.7-27.9-5-35.2-20.6c-10-21.4-28-32.1-51.4-34
	c-2.4-0.2-4.9-0.1-7.3,0.3c-15.5,2.7-28.8-6.4-34.9-19.7c-3.4-7.4-9-13.8-13.9-21c1.1-0.2,3-0.7,4.9-0.8
	c12.4-0.6,23.9,2.5,33.8,10.2c36.5,28.5,74.5,54.6,115.7,75.8c21.9,11.3,44.6,21.3,67.4,30.8c15.7,6.6,28.2,15.7,34.5,32
	C443.4,280.7,444.1,283.2,445.3,287.2z"/>
<path class="st0" d="M232.9,192.3c-22.8,1.7-40-7.1-50.2-28c-4-8.3-8.8-15.8-17.2-20.5c-2.8-1.5-4-4-2.2-7c2-3.2,4.8-3,7.7-1.2
	c7.1,4.4,13.6,9.6,16.8,17.4c9.6,23.3,26.4,31.9,51.3,29.9c18.6-1.5,33,8.1,42.6,24.3c1.8,3,3.2,6.2,4.9,9.2
	c7.3,13.5,18.8,20.1,33.9,20.7c3,0.1,5.9-0.2,8.9-0.4c21.5-1,37.4,8,47.4,27c4.6,8.7,9.3,17.1,18.2,22.4c1.5,0.9,2.6,5.2,1.8,7
	c-1.2,2.8-4.5,2.7-7.2,1.1c-8-4.7-14.2-11.2-18.2-19.6c-4.1-8.5-8.7-16.5-17.1-21.9c-8.8-5.5-18.1-6.8-28.1-5.9
	c-9.4,0.8-18.3-0.5-26.9-4.7c-11.7-5.8-19.3-15.1-24.5-26.8c-4.9-11.3-13.8-18.4-25.5-21.4C244.1,192.5,238.4,192.8,232.9,192.3z"/>
</svg>
