<?xml version="1.0" encoding="utf-8"?>
<!-- Generator: Adobe Illustrator 22.1.0, SVG Export Plug-In . SVG Version: 6.00 Build 0)  -->
<svg version="1.1" id="Layer_1" xmlns="http://www.w3.org/2000/svg" xmlns:xlink="http://www.w3.org/1999/xlink" x="0px" y="0px"
	 viewBox="0 0 500 500" style="enable-background:new 0 0 500 500;" xml:space="preserve">
<style type="text/css">
	.st0{fill:#FFFFFF;}
</style>
<path d="M257,355.1c-58.3,0-116.5,0.1-174.8-0.1c-8.1,0-16.2-1.2-24.4-1.9c-0.9-0.1-1.9-0.3-2.8-0.5c-17.6-4-24.3-15.4-18.8-32.5
	c1.1-3.5,1.2-9,6.7-8.4c5.5,0.6,3.5,5.9,3.9,9.3c1.4,12.1,8,16.5,19.3,11.8c13.9-5.8,22.5-17,28.6-30.3
	c10.4-22.6,23.1-43.6,40.6-61.4c45.9-46.7,101-67.1,165.9-55.2c48.4,8.9,86.4,35.7,115.6,74.9c18.9,25.3,31,53.8,37.7,84.6
	c1.8,8.3,0.7,9.7-7.9,9.7C383.4,355.1,320.2,355.1,257,355.1C257,355.1,257,355.1,257,355.1z M445.7,345.5c-0.6-2.7-1.2-5.5-1.9-8.2
	c-7.7-29.4-20.7-56.2-40.2-79.6c-29.9-36-67.5-59.6-114.3-65.1c-66.4-7.9-119.5,17.8-160.3,69.3c-11.2,14.1-19.1,30.9-27.8,46.8
	c-7.7,14.1-17.2,25.9-32.3,32.2c-3.3,1.4-7,2-11.3,3.3C66.7,346.3,437,347.5,445.7,345.5z"/>
<path d="M109.8,223.3c-11.8-1.5-23.3,8.6-25.3,20.3c-0.2,0.9,0.1,2.2-0.4,2.8c-1.4,1.7-3.1,3.2-4.6,4.8c-1.3-2-3.8-4-3.7-5.9
	c0.9-12,7-21.3,17.2-27.2c5-2.9,11.9-2.9,16.7-6.1c4.6-3.1,7.1-9.3,11.5-13c6.1-5.2,13.7-7.4,21.8-6.4c1.8,0.2,3.4,2.7,5.1,4.1
	c-1.7,1.4-3.3,3.9-5,4c-12.8,0.3-21.4,6-26.5,17.9C115.6,220.7,112.1,221.7,109.8,223.3z"/>
<path d="M42.5,288.3c0.9-15.6,7.5-27.7,21-35.7c1.9-1.1,4.1-2.1,6.3-2.3c1.3-0.1,3.7,1.1,4,2.1c0.4,1.4-0.5,3.4-1.3,4.9
	c-0.5,0.8-1.9,1.1-2.9,1.6c-21.9,11.1-24.7,40.2-5.3,55.2c0.7,0.6,2,0.9,2.2,1.7c0.7,2.1,1.1,4.3,1.6,6.4c-2.2,0.1-5,1.2-6.5,0.2
	C49.2,314.5,43.3,302.7,42.5,288.3z"/>
<path d="M189,173.7c7,2.6,14.1,4.8,20.8,7.9c1.5,0.7,1.7,4.1,2.6,6.3c-2.3,0.2-5.4,1.5-6.9,0.5c-18.9-12.6-46.7-1.2-48.9,25.2
	c-0.3,3.1-1,6.4-4.6,5.4c-1.7-0.5-3.6-4.2-3.5-6.4c0.4-20.8,18.7-37.7,40-37.5C188.6,174.7,188.8,174.2,189,173.7z"/>
<path d="M439.3,274.5c-0.5-18.8-14.1-33.7-32.8-35.6c-1.3-0.1-2.9,0.2-3.9-0.5c-1.5-1-3.6-2.8-3.5-4.1c0.1-1.4,2.4-3.7,3.8-3.8
	c3.7-0.2,7.6,0.3,11.3,1.1c23.7,5.7,38.5,31.3,31.8,54.8c-0.9,3.1-1.8,6.3-5.9,5.2c-3.8-1-2.9-4.2-2.4-7.1
	C438.3,281.2,438.7,277.8,439.3,274.5z"/>
<path d="M73.1,289.4c1.4-20.7,17.9-37.8,37.9-37.7c2.2,0,5.9,2,6.3,3.6c0.9,4.3-2.8,4.3-6,4.5c-23.1,1.9-35.1,23.6-24.4,44.2
	c1.5,2.8,3.3,5.8-0.6,7.8c-3.7,1.9-5.8-1-6.9-3.9C77.1,301.9,75.2,295.6,73.1,289.4z"/>
<path d="M308.9,166c16.8,0.9,29.5,8.3,37.8,23.2c1.5,2.7,2.6,5.5-0.7,7.4c-3.2,1.8-5-0.3-6.7-3.1c-11.8-19.6-30.2-24.2-50.1-13.1
	c-1.6,0.9-4.2-0.2-6.3-0.3c0.6-2.3,0.6-5.6,2.1-6.6C292,168.4,300,165.8,308.9,166z"/>
<path d="M228.3,169.8c7.4,3.8,11.8-0.5,17.2-4c10.6-6.9,21.9-6.8,32.8-0.5c1.8,1,3.7,4.8,3.1,6.6c-1.2,3.6-4.3,2.3-7,0.9
	c-11-5.9-22.1-4.1-30.2,5.2c-2.8,3.2-5,4.4-9.1,2.3c-5.1-2.6-10.3-1.6-15.2,1.2c-2.8,1.7-5.9,2.3-7-1.3c-0.5-1.6,1.3-5.2,3-6.1
	C219.8,172.2,224.3,171.2,228.3,169.8z"/>
<path d="M355.8,177.5c9.3,0.4,16.6,4.5,21.6,12.5c1.6,2.6,2.8,5.5-0.3,7.5c-3.1,2-5.1-0.1-6.8-2.8c-3.8-6.2-9.5-9.2-16.7-8.5
	c-3.2,0.3-6.1,0.2-6.6-3.4c-0.5-4.1,2.8-4.8,6-5.1C353.8,177.6,354.7,177.6,355.8,177.5z"/>
<path d="M402.9,224.6c-0.5,0.7-1.4,2.6-2.6,2.9c-1.5,0.3-4.2-0.2-4.9-1.3c-4.5-7.3-10.9-11.3-19.1-13c-1.3-0.3-2.9-2.5-3.1-4
	c-0.1-1.1,1.5-3.1,2.8-3.7C383.1,202.7,402.5,215.9,402.9,224.6z"/>
<path d="M459.4,312.1c-0.6,3-0.8,6.1-1.9,8.8c-0.5,1.3-3,2.6-4.3,2.4c-1.3-0.2-3.3-2.6-3.1-3.8c1.3-8.2,0.3-15.7-4.3-22.8
	c-0.6-0.9,0.8-4.5,1.6-4.6c1.9-0.3,5.1,0.2,5.7,1.4c2.8,5.8,5,12,7.4,18C460.1,311.7,459.8,311.9,459.4,312.1z"/>
<path d="M147.2,176.5c2.8,0.6,5.7,0.8,8.2,2.1c1.4,0.7,2,3.1,2.9,4.8c-1.8,1-3.8,3.1-5.3,2.8c-6.3-1.5-11.9-0.8-17.4,2.8
	c-1.3,0.9-4-0.3-6-0.6c0.5-2.1,0.4-5.5,1.7-6.2c4.9-2.6,10.2-4.4,15.3-6.5C146.8,175.9,147,176.2,147.2,176.5z"/>
<path d="M210.9,168.8c-3.1,1.1-6.2,2.5-9.4,3.1c-2,0.4-4.2-0.6-6.3-1c0.8-2.1,0.9-5,2.4-6.1c4.9-3.6,10.7-5.1,16.6-3.1
	c1.9,0.6,3.1,3,4.7,4.6c-2,1.2-4,2.4-6,3.5c-0.4,0.2-1.1-0.1-1.7-0.2C211,169.3,210.9,169,210.9,168.8z"/>
<path d="M465.2,290.5c-2.2,2.2-3.8,3.9-5.4,5.6c-1.5-1.6-3.4-3-4.4-4.9c-1.7-3.5-3.3-7.2-4.2-11c-0.5-2,0.6-4.3,0.9-6.4
	c2,0.6,4.9,0.6,5.7,1.9C460.6,280.1,462.5,284.9,465.2,290.5z"/>
<path d="M354.5,190c6.5,0.1,15.1,6,16.6,11.2c0.5,1.6-0.6,3.7-1,5.6c-2-0.4-4.3-0.4-5.9-1.4c-3.6-2.2-6.9-4.8-10.1-7.5
	c-1.4-1.2-2.9-3.3-2.7-4.7C351.6,191.7,353.9,190.5,354.5,190z"/>
<path class="st0" d="M445.7,345.5c-8.7,2-379,0.8-388.1-1.3c4.3-1.2,8-1.9,11.3-3.3c15.2-6.3,24.7-18.1,32.3-32.2
	c8.7-15.9,16.6-32.7,27.8-46.8c40.8-51.5,93.9-77.2,160.3-69.3c46.8,5.5,84.4,29.1,114.3,65.1c19.5,23.4,32.5,50.2,40.2,79.6
	C444.5,340,445.1,342.8,445.7,345.5z M313.5,302.1c-0.1-8.4-6.8-15.1-15.2-15.1c-8.1,0-15.2,7.1-15.1,15.3c0.1,8.7,7,15.5,15.6,15.4
	C307,317.5,313.6,310.6,313.5,302.1z M339.1,267.4c-8.2,0-14.8,6.7-14.8,14.8c0,8,6.9,14.9,14.9,14.9c8,0,14.9-6.9,14.9-14.9
	C354,274.2,347.2,267.4,339.1,267.4z M243.3,317.6c8-0.1,14.3-6.6,14.2-14.7c0-8-6.6-14.5-14.5-14.5c-8,0.1-14.2,6.6-14.2,14.7
	C229,311.3,235.3,317.6,243.3,317.6z M335.3,248c0.4-7.7-5.5-14.4-13.2-14.8c-7.7-0.4-14,5.2-14.5,12.8c-0.5,8.1,5,14.5,12.8,15
	C328.3,261.5,334.9,255.8,335.3,248z M273.9,234.6c0.1-7.3-5.8-13.5-13.1-13.6c-7.2-0.2-13.3,5.9-13.5,13.3
	c-0.2,7.3,5.9,13.6,13.1,13.7C267.7,247.9,273.9,241.9,273.9,234.6z M148.2,296.9c-0.1,7.4,5.9,13.5,13.2,13.5c7,0,12.9-6,13-13.1
	c0.1-7.5-5.8-13.5-13.2-13.4C154,284,148.3,289.6,148.2,296.9z M212.7,283.6c7.1,0,13-6,12.9-13.1c-0.2-7-5.9-12.6-12.8-12.6
	c-7.1,0.1-12.7,5.6-12.9,12.6C199.7,277.7,205.5,283.6,212.7,283.6z M409.5,308.4c-6.5-0.1-11.6,4.8-11.8,11.2
	c-0.2,6.7,5,12,11.7,12c6.3,0,11.5-5.1,11.5-11.5C420.9,313.5,415.9,308.5,409.5,308.4z"/>
<path d="M313.5,302.1c0.1,8.5-6.5,15.4-14.8,15.5c-8.6,0.2-15.5-6.6-15.6-15.4c-0.1-8.1,7-15.3,15.1-15.3
	C306.7,287,313.5,293.7,313.5,302.1z M299.8,294.9c-0.9,0-1.8,0-2.7,0c-1.8,2.4-4.7,4.6-5.2,7.2c-0.7,4,2.1,7,6.3,7.1
	c4.2,0.1,7.1-2.9,6.5-6.8C304.4,299.6,301.6,297.3,299.8,294.9z"/>
<path d="M339.1,267.4c8.1,0,14.9,6.8,14.9,14.8c0,8-6.9,14.9-14.9,14.9c-8,0-14.9-6.9-14.9-14.9
	C324.3,274.1,330.9,267.5,339.1,267.4z M346.2,283.2c0-0.8-0.1-1.7-0.1-2.5c-2.4-1.6-5-4.6-7.1-4.3c-2.3,0.3-5.5,3.6-5.9,6
	c-0.6,3.6,2.4,6.8,6.3,5.9C342,287.7,344,284.9,346.2,283.2z"/>
<path d="M243.3,317.6c-8,0.1-14.4-6.3-14.5-14.4c-0.1-8.2,6.2-14.7,14.2-14.7c7.9-0.1,14.5,6.4,14.5,14.5
	C257.6,311,251.3,317.5,243.3,317.6z M249.9,304.4c0-0.9,0-1.7,0-2.6c-2.2-1.6-4.1-4-6.5-4.5c-3.7-0.7-6.5,2.1-6,5.6
	c0.4,2.2,3.3,5.4,5.4,5.6C245.1,308.7,247.6,305.9,249.9,304.4z"/>
<path d="M335.3,248c-0.4,7.8-6.9,13.5-14.9,13c-7.9-0.5-13.4-6.9-12.8-15c0.5-7.6,6.8-13.2,14.5-12.8
	C329.7,233.6,335.7,240.3,335.3,248z M329.3,247.4c-3.7-2.7-5.9-5.4-7.8-5.3c-2,0.2-3.7,3.2-5.6,5c1.8,1.8,3.4,4.9,5.4,5.1
	C323.2,252.5,325.5,249.8,329.3,247.4z"/>
<path d="M273.9,234.6c-0.1,7.2-6.3,13.3-13.5,13.3c-7.2,0-13.2-6.4-13.1-13.7c0.2-7.4,6.3-13.4,13.5-13.3
	C268.1,221.1,274,227.3,273.9,234.6z M267.3,234.4c-3-2.2-4.9-4.5-6.5-4.4c-1.7,0.1-3.3,2.6-4.9,4.1c1.6,1.7,3,4.3,4.9,4.7
	C262.2,239.2,264.3,236.6,267.3,234.4z"/>
<path d="M148.2,296.9c0.1-7.3,5.7-13,13-13c7.4,0,13.3,5.9,13.2,13.4c-0.1,7.1-6,13.1-13,13.1C154.1,310.5,148.2,304.4,148.2,296.9z
	 M167.9,296.9c-3.2-2.1-5.2-4.4-6.8-4.2c-1.7,0.3-3.9,2.9-4.1,4.7c-0.2,1.2,2.8,4,4.3,4C163,301.5,164.8,299.2,167.9,296.9z"/>
<path d="M212.7,283.6c-7.2,0-13-5.9-12.8-13.1c0.1-7,5.8-12.5,12.9-12.6c6.9-0.1,12.7,5.6,12.8,12.6
	C225.7,277.6,219.8,283.7,212.7,283.6z M218.9,270.5c-3.1-2-4.8-3.9-6.5-3.8c-1.4,0.1-3.9,2.7-3.6,3.8c0.3,1.7,2.3,4.1,3.9,4.4
	C214.1,275.1,215.9,272.8,218.9,270.5z"/>
<path d="M409.5,308.4c6.5,0.1,11.4,5.2,11.4,11.6c-0.1,6.4-5.2,11.5-11.5,11.5c-6.6,0-11.8-5.3-11.7-12
	C397.8,313.2,403,308.3,409.5,308.4z"/>
<path class="st0" d="M299.8,294.9c1.7,2.5,4.6,4.8,4.9,7.4c0.5,4-2.3,6.9-6.5,6.8c-4.2-0.1-7-3.1-6.3-7.1c0.5-2.6,3.4-4.8,5.2-7.2
	C298,294.9,298.9,294.9,299.8,294.9z"/>
<path class="st0" d="M346.2,283.2c-2.2,1.8-4.3,4.5-6.7,5c-4,0.9-6.9-2.3-6.3-5.9c0.4-2.4,3.6-5.6,5.9-6c2.1-0.3,4.7,2.7,7.1,4.3
	C346.1,281.5,346.2,282.3,346.2,283.2z"/>
<path class="st0" d="M249.9,304.4c-2.4,1.5-4.8,4.3-7.1,4.1c-2-0.2-5-3.4-5.4-5.6c-0.6-3.5,2.3-6.3,6-5.6c2.4,0.5,4.3,2.9,6.5,4.5
	C250,302.7,249.9,303.5,249.9,304.4z"/>
<path class="st0" d="M329.3,247.4c-3.8,2.4-6.1,5.1-8,4.8c-2-0.2-3.6-3.3-5.4-5.1c1.9-1.8,3.6-4.8,5.6-5
	C323.4,242,325.6,244.7,329.3,247.4z"/>
<path class="st0" d="M267.3,234.4c-3,2.2-5.1,4.7-6.5,4.4c-1.9-0.4-3.3-3-4.9-4.7c1.6-1.5,3.2-3.9,4.9-4.1
	C262.5,229.9,264.3,232.3,267.3,234.4z"/>
<path class="st0" d="M167.9,296.9c-3.1,2.3-4.9,4.5-6.7,4.6c-1.5,0-4.4-2.7-4.3-4c0.2-1.8,2.4-4.5,4.1-4.7
	C162.7,292.5,164.7,294.9,167.9,296.9z"/>
<path class="st0" d="M218.9,270.5c-3,2.3-4.8,4.6-6.2,4.4c-1.6-0.3-3.6-2.6-3.9-4.4c-0.2-1.1,2.3-3.7,3.6-3.8
	C214,266.6,215.8,268.6,218.9,270.5z"/>
</svg>
