<?xml version="1.0" encoding="utf-8"?>
<!-- Generator: Adobe Illustrator 22.1.0, SVG Export Plug-In . SVG Version: 6.00 Build 0)  -->
<svg version="1.1" id="Layer_1" xmlns="http://www.w3.org/2000/svg" xmlns:xlink="http://www.w3.org/1999/xlink" x="0px" y="0px"
	 viewBox="0 0 500 500" style="enable-background:new 0 0 500 500;" xml:space="preserve">
<path d="M433.7,275.2c-13.3,18.4-30.3,31.5-50.3,40.9c-1.2,0.6-2.4,1-3.6,1.6c-4.1,1.8-7.8,1.8-9.8-2.8c-2.1-4.6,0.7-7.3,4.4-9.3
	c7.6-4.2,15.7-7.8,22.8-12.7c27.2-18.9,38.6-45.4,37-78.2c-1.5-29.4-11.6-55-32.3-76.1c-9.9-10.1-21.5-17.6-35-22
	c-0.5-0.2-1-0.4-1.6-0.5c-4.2-1.3-6.3-4.2-5-8.5c1.3-4.4,5-5.2,9.1-4c13.6,4,25.6,10.8,36.2,20.2c28.4,25.2,41.3,57.5,42.3,94.8
	c0.5,19.1,0.6,38.4-0.7,57.5c-2.4,34.7-20.4,60.2-49.7,77.9c-23.6,14.2-49.7,21.1-76.7,25c-27.9,4-55.9,5-84,3.3
	c-40.6-2.5-80.4-8.8-117.6-26.7c-19.7-9.5-37.3-21.4-49.4-40.3c-6.2-9.6-9.7-20.3-9.8-31.5c-0.2-18.8-0.3-37.6,0.9-56.3
	c1.6-25.4,19.9-42.3,45.6-43.8c16.8-1,33.3,1.1,48.7,7c29.3,11.2,52.2,2.4,71.7-20c6.7-7.7,13.2-15.6,19.9-23.4
	c22.5-26,51.1-40.7,84.9-45.6c5.4-0.8,8.9,1.1,9.3,5.3c0.5,4.9-2.5,7.1-6.9,7.7c-16.4,2.2-31.7,7.3-46.2,15.4
	c-17.1,9.5-29.7,23.8-42,38.5c-7.8,9.4-16.4,18.3-25.8,26c-20.1,16.4-42.8,17.6-66.8,9.2c-13.7-4.9-27.9-7.3-42.6-7
	c-27.4,0.7-38.1,17.3-37.2,41.7c0.8,19.9,12.5,33.6,27.2,45.2c4.8,3.8,10.1,6.8,15.3,10.1c3.7,2.3,6,5.1,3.9,9.6
	c-1.8,3.8-5.9,4.4-10.5,1.8c-12.4-7-23.7-15.3-32.8-26.4c-0.8-1-1.1-2.3-2.3-2.9c-2.1,16.4,3.2,29.7,13.6,41.2
	c15.8,17.5,36.1,27.5,57.9,35.1c32.2,11.1,65.5,15.8,99.5,16.9c25.7,0.8,51.3,0.3,76.7-3.7c25.3-3.9,49.7-10.6,71.5-24.7
	c23.2-14.9,37.2-35.8,40.4-63.5C433.8,276.6,433.7,275.9,433.7,275.2z"/>
<path d="M145,224c2.7,7.6,4.8,13.9,7.3,20.1c1.8,4.3,0.6,7.3-3.3,9.3c-3.6,1.8-7.5-0.2-9.2-4.7c-3.1-8.1-6.2-16.3-8.9-24.6
	c-1.1-3.4-3-4.9-6.4-4.9c-6.1,0-12.3-0.5-18.4-0.1c-5.2,0.3-8.7,2.9-10.1,8.6c-3,11.6,0.4,21.3,8,29.7c11.9,13.2,27.2,21,43.6,27
	c1.6,0.6,3.1,1.2,4.7,1.7c0.1,0,0.3-0.1,1.1-0.4c-1-2.8-2-5.7-3-8.6c-0.7-1.9-1.4-3.9-1.8-5.8c-0.7-3.8,0.5-6.8,4.3-7.9
	c3.8-1,6.6,0.7,7.9,4.3c2.4,6.2,4.9,12.5,6.9,18.8c1.2,3.9,3.4,5.8,7.3,6.4c3.8,0.6,7.6,1.6,11.3,2.7c3.7,1.1,5.6,3.9,4.6,7.8
	c-1,3.8-4,5.5-7.7,4.7c-30.9-6.6-60.9-15.6-84.9-37.7C85.2,258.4,79,243.7,83,225.5c2.1-9.9,8.3-16.5,18.2-18.7
	c15.2-3.5,29.8,0.2,44.5,3.7c11.9,2.8,23.8,6.6,35.8,7c15.9,0.6,31.1-4.9,43.1-15.7c12.2-11,23.9-22.9,34.4-35.6
	c22.6-27.1,51.2-41.6,86.2-43.8c18.7-1.1,33.7,7.3,47.3,19.1c30.7,26.6,42.4,78.8,25.7,114.3c-1.9,4-3.9,8-9.4,6
	c-4.6-1.7-5.5-5.3-2.6-11.2c16-33.1,2-86.3-33-107.1c-5.6-3.3-11.9-5.5-17.8-8.2c-0.5,0.6-1,1.1-1.4,1.7c1.9,5.3,3.8,10.5,5.7,15.8
	c0.8,2.1,1.6,4.2,2.3,6.3c1.5,4.3,0.5,8.1-3.9,9.6c-4.3,1.5-7-1.2-8.5-5.1c-2.7-7.1-5.5-14.2-7.7-21.5c-1.5-5-4.2-6.2-9-5.3
	c-16.9,3.5-32.6,9.8-46.4,20.5c-3.6,2.8-3.7,5.2-2.3,8.9c8.6,23.1,17.1,46.3,25.6,69.4c1.9,5.1,0.6,8.7-3.3,10.2
	c-3.9,1.4-7.1-0.7-9-6c-8-21.7-16.1-43.5-24.1-65.2c-0.3-0.8-0.7-1.5-1.4-2.9c-14.6,17.6-28.6,35.2-48.4,47.3
	c6.2,17,12.4,33.7,18.5,50.4c3.6,9.7,7.1,19.5,11,29.2c0.7,1.7,3.1,4,4.7,3.9c20.2-0.7,40.4-1.8,61.6-2.8
	c-4.1-11.4-7.6-21.1-11.1-30.8c-0.6-1.7-1.3-3.5-1.8-5.3c-1-3.9-0.2-7.3,4-8.5c4-1.2,6.8,0.7,8.3,4.6c3.8,10.3,7.6,20.5,11.4,30.8
	c0.6,1.7,1.4,3.4,2.3,5.4c16.3-3.5,31.8-8.6,46.3-16.9c1.8-1.1,4.4-2.3,6.1-1.8c2.3,0.7,5.7,3,5.8,4.6c0,2.6-1.8,6.4-3.9,7.5
	c-9.9,5-19.9,10.1-30.4,13.7c-35,11.8-71.4,13.3-107.9,12.3c-10.8-0.3-21.5-1.5-32.2-2.1c-4.3-0.3-6.8-2.6-6.7-6.6
	c0.1-4.4,3.2-6.4,7.6-6.2c7.4,0.4,14.8,0.8,22.9,1.3c-9.5-25.7-18.8-50.9-28.3-76.6C189.6,233.3,167.8,232.1,145,224z"/>
<path d="M261.5,337.7c-34.8-0.5-70.4-3.7-105.2-13.5c-3.2-0.9-6.5-1.6-9.6-2.9c-3.5-1.5-5.9-4.3-4.2-8.5c1.5-3.9,4.7-5.2,8.6-4
	c41.1,12.9,83.2,16.4,126,15.2c22.5-0.7,44.8-3,66.7-8.4c5.5-1.4,9.3,0.4,10.2,4.6c0.9,4.3-1.7,7.1-7.4,8.5
	C319.1,335.2,291,337.2,261.5,337.7z"/>
<path d="M397.2,256.5c-1.6,1.4-3.6,4.3-5.8,4.5c-2.3,0.2-6-1.7-6.9-3.8c-3.5-7.4-6.1-15.1-8.9-22.7c-6-16.3-11.9-32.8-18-49.1
	c-1.6-4.3-0.7-7.4,3.2-9.3c3.7-1.9,7.5,0.1,9.2,4.6c8.7,23.5,17.3,47,26,70.5C396.3,252.5,396.5,253.7,397.2,256.5z"/>
</svg>
