<?xml version="1.0" encoding="utf-8"?>
<!-- Generator: Adobe Illustrator 22.1.0, SVG Export Plug-In . SVG Version: 6.00 Build 0)  -->
<svg version="1.1" id="Layer_1" xmlns="http://www.w3.org/2000/svg" xmlns:xlink="http://www.w3.org/1999/xlink" x="0px" y="0px"
	 viewBox="0 0 500 500" style="enable-background:new 0 0 500 500;" xml:space="preserve">
<style type="text/css">
	.st0{fill:#FFFFFF;}
</style>
<g>
	<path d="M162.3,367.3c-6.5,0-12.5,0.3-18.4-0.1c-19.8-1.1-34.6-16.2-35.3-35.6c-0.7-19.1,13.6-35.3,33.1-37.8
		c0.5-0.1,1-0.2,2.1-0.4c-0.4-1.8-0.7-3.5-1.1-5.1c-17.2-63.7-34.4-127.5-51.6-191.2c-1.6-6-2.1-6.4-8.4-6.4c-13.1,0-26.3,0-39.4,0
		c-1.7,0-3.5-0.1-5.2-0.5c-5.8-1.5-9.6-6.6-9-12.3c0.5-5.8,5.3-10.6,11.3-10.8C50.5,66.9,60.6,67,70.8,67c4.7,0,9.5-0.1,14.2,0
		c14.3,0.3,24.7,8.3,28.5,22.1c4.2,15.5,8.5,31.1,12.5,46.7c0.8,3.2,2.1,4.2,5.5,4.2c58.6,0.1,117.2,0.4,175.9,0.6
		c33,0.1,66.1,0.3,99.1,0.4c17.8,0.1,28.6,13.6,24.6,30.9c-9.3,40.3-18.6,80.7-28.1,121c-3.8,16-14.7,24.4-31.3,24.4
		c-73.9,0-147.8-0.1-221.8-0.1c-2,0-4.1,0-6.1,0.2c-6.7,0.9-11.4,6.4-11.3,13.2c0,6.7,4.6,11.9,11.3,12.7c2,0.3,4.1,0.2,6.1,0.2
		c75.4,0,150.8,0,226.2,0c2.4,0,4.9-0.1,7.3,0.1c5.3,0.5,9.1,3.8,10.5,8.7c1.4,4.9-0.4,9.6-4.8,12.8c-0.7,0.5-1.5,1-2.2,1.5
		c6.7,24.1,2.4,40.4-13.8,52c-13.5,9.7-32.3,10.1-46.2,0.9c-16.7-11-21.4-26.4-15.6-52.2c-24.3,0-48.6,0-73.2,0
		c7.3,22.2,2.8,40.9-17.6,53.2c-15.1,9.1-30.9,7.9-44.9-2.7C158.4,405.2,155.4,387.8,162.3,367.3z M193.7,217.1
		c-0.2-1.7-0.2-3.2-0.4-4.6c-2-14.9-4.1-29.8-5.9-44.7c-0.4-3.2-1.7-3.9-4.6-3.9c-15,0.1-30.1-0.1-45.1-0.1c-1.2,0-2.4,0.1-3.5,0.2
		c-0.1,0.5-0.2,0.8-0.1,1.1c4.4,16.6,8.9,33.2,13.2,49.8c0.7,2.5,2.3,2.5,4.3,2.5c12.7,0,25.5,0,38.2,0
		C190.9,217.4,192.1,217.2,193.7,217.1z M211.1,164.2c-0.1,0.9-0.2,1.4-0.1,2c2.1,16.1,4.3,32.2,6.3,48.3c0.4,2.9,2,3,4.2,3
		c10.7-0.1,21.4,0,32.1-0.1c2.9,0,5.9,0,8.9,0c0-18,0-35.5,0-53.2C245.2,164.2,228.4,164.2,211.1,164.2z M338.5,164.7
		c-17.6,0-34.6,0-51.6,0c0,17.7,0,35.1,0,52.6c15,0,29.5,0,44.6,0C333.8,199.8,336.1,182.5,338.5,164.7z M408.2,165.3
		c-0.5-0.2-0.8-0.5-1-0.5c-14.2-0.1-28.4-0.2-42.6-0.1c-0.9,0-2.4,1.9-2.6,3c-1.7,11.5-3.2,23-4.7,34.6c-0.6,4.9-1.2,9.8-1.8,14.6
		c0.8,0.3,1,0.4,1.3,0.4c8.9,0,17.9,0.1,26.8,0c4,0,9.2,1.3,11.8-0.7c2.5-2,2.4-7.3,3.5-11.2c0.1-0.3,0.2-0.5,0.2-0.8
		C402.2,191.6,405.2,178.4,408.2,165.3z M154.6,241c0.4,1.8,0.7,3.1,1,4.3c3.3,12.4,6.6,24.8,10,37.2c3,11.3,3,11.2,14.8,11.2
		c7.7,0,15.3,0,23,0c0.2-0.9,0.4-1.3,0.3-1.6c-2.1-16.3-4.3-32.7-6.6-49c-0.1-0.8-2-1.9-3.1-2c-4.3-0.2-8.6-0.1-13-0.1
		C172.4,241,163.8,241,154.6,241z M262.6,293.6c0-17.7,0-34.9,0-52.2c-14,0-27.7,0-41.6,0c2.4,17.6,4.7,34.9,7,52.2
		C239.7,293.6,251,293.6,262.6,293.6z M328.2,241.3c-14.2,0-27.8,0-41.4,0c0,17.6,0,34.8,0,52.5c11.1,0,21.9,0.1,32.7-0.1
		c0.8,0,2-1.8,2.2-3c1.1-6.8,1.9-13.7,2.8-20.5C325.8,260.7,327,251.2,328.2,241.3z M390.6,241.6c-1-0.3-1.4-0.5-1.8-0.5
		c-11.4,0-22.7,0-34.1-0.1c-2.8,0-2.9,1.8-3.1,3.7c-2,15.3-4,30.6-5.9,45.8c-0.1,1,0,2,0,3.2c9.5,0,18.7,0.1,27.9,0
		c3.4,0,5.5-2,6.3-5.3c1-4.3,2.1-8.7,3.1-13C385.4,264.2,388,253.1,390.6,241.6z M349,402.8c10,0,17.8-7.6,18-17.5
		c0.1-9.5-7.8-17.7-17.4-17.8c-9.7-0.2-17.8,7.8-17.9,17.6C331.6,394.8,339.4,402.8,349,402.8z M199.8,402.8c10,0,17.8-7.6,18-17.6
		c0.1-9.5-7.8-17.7-17.4-17.8c-9.8-0.1-17.8,7.8-17.9,17.7C182.4,394.9,190.1,402.8,199.8,402.8z"/>
	<path class="st0" d="M193.7,217.1c-1.6,0.1-2.8,0.3-4,0.3c-12.7,0-25.5,0-38.2,0c-2,0-3.6,0-4.3-2.5c-4.3-16.6-8.8-33.2-13.2-49.8
		c-0.1-0.2,0.1-0.5,0.1-1.1c1.1-0.1,2.3-0.2,3.5-0.2c15,0,30.1,0.2,45.1,0.1c2.9,0,4.2,0.7,4.6,3.9c1.8,14.9,3.9,29.8,5.9,44.7
		C193.5,213.9,193.5,215.4,193.7,217.1z"/>
	<path class="st0" d="M211.1,164.2c17.3,0,34.2,0,51.4,0c0,17.7,0,35.1,0,53.2c-3,0-5.9,0-8.9,0c-10.7,0-21.4,0-32.1,0.1
		c-2.2,0-3.9-0.1-4.2-3c-2-16.1-4.2-32.2-6.3-48.3C210.9,165.6,211,165.1,211.1,164.2z"/>
	<path class="st0" d="M338.5,164.7c-2.4,17.8-4.7,35.2-7,52.6c-15.1,0-29.6,0-44.6,0c0-17.5,0-34.9,0-52.6
		C303.9,164.7,320.9,164.7,338.5,164.7z"/>
	<path class="st0" d="M408.2,165.3c-3,13.1-6.1,26.2-9.1,39.4c-0.1,0.3-0.1,0.5-0.2,0.8c-1.1,3.9-1,9.3-3.5,11.2
		c-2.6,2-7.8,0.7-11.8,0.7c-8.9,0-17.9,0-26.8,0c-0.2,0-0.5-0.2-1.3-0.4c0.6-4.8,1.1-9.7,1.8-14.6c1.5-11.5,3-23.1,4.7-34.6
		c0.2-1.2,1.7-3,2.6-3c14.2-0.1,28.4,0,42.6,0.1C407.5,164.9,407.7,165.1,408.2,165.3z"/>
	<path class="st0" d="M154.6,241c9.1,0,17.8,0,26.4,0c4.3,0,8.7-0.1,13,0.1c1.1,0.1,3,1.2,3.1,2c2.3,16.3,4.4,32.7,6.6,49
		c0,0.4-0.1,0.8-0.3,1.6c-7.6,0-15.3,0-23,0c-11.8,0-11.8,0-14.8-11.2c-3.3-12.4-6.7-24.8-10-37.2
		C155.3,244.1,155.1,242.8,154.6,241z"/>
	<path class="st0" d="M262.6,293.6c-11.5,0-22.8,0-34.7,0c-2.3-17.3-4.6-34.5-7-52.2c14,0,27.6,0,41.6,0
		C262.6,258.7,262.6,275.9,262.6,293.6z"/>
	<path class="st0" d="M328.2,241.3c-1.3,9.9-2.5,19.4-3.7,28.9c-0.9,6.8-1.8,13.7-2.8,20.5c-0.2,1.1-1.4,2.9-2.2,3
		c-10.8,0.2-21.6,0.1-32.7,0.1c0-17.7,0-34.9,0-52.5C300.4,241.3,314,241.3,328.2,241.3z"/>
	<path class="st0" d="M390.6,241.6c-2.6,11.4-5.2,22.6-7.7,33.8c-1,4.3-2,8.7-3.1,13c-0.8,3.3-2.8,5.3-6.3,5.3
		c-9.2,0.1-18.3,0-27.9,0c0-1.2-0.1-2.3,0-3.2c2-15.3,4-30.6,5.9-45.8c0.2-1.9,0.3-3.7,3.1-3.7c11.4,0.1,22.7,0.1,34.1,0.1
		C389.2,241.1,389.6,241.3,390.6,241.6z"/>
	<path class="st0" d="M349,402.8c-9.6,0-17.4-8-17.3-17.7c0.1-9.9,8.2-17.8,17.9-17.6c9.6,0.2,17.5,8.3,17.4,17.8
		C366.9,395.2,359,402.8,349,402.8z"/>
	<path class="st0" d="M199.8,402.8c-9.6,0-17.4-7.9-17.3-17.7c0.1-9.9,8.1-17.8,17.9-17.7c9.5,0.1,17.5,8.3,17.4,17.8
		C217.6,395.2,209.8,402.8,199.8,402.8z"/>
</g>
</svg>
